<?xml version="1.0" encoding="UTF-8" standalone="no"?>
<!DOCTYPE svg PUBLIC "-//W3C//DTD SVG 1.1//EN" "http://www.w3.org/Graphics/SVG/1.1/DTD/svg11.dtd">
<svg width="100%" height="100%" viewBox="0 0 1432 396" version="1.1" xmlns="http://www.w3.org/2000/svg" xmlns:xlink="http://www.w3.org/1999/xlink" xml:space="preserve" xmlns:serif="http://www.serif.com/" style="fill-rule:evenodd;clip-rule:evenodd;stroke-linejoin:round;stroke-miterlimit:2;">
    <g transform="matrix(1,0,0,1,-18,15)">
        <g transform="matrix(1.16691,0,0,1.19663,-71.3713,-61.8764)">
            <g transform="matrix(1.12612,0,0,1.12612,155.588,-236.033)">
                <path d="M186.667,348.37L201.157,348.37L201.157,369.93L210.117,369.93L210.117,321.07L201.157,321.07L201.157,340.95L186.667,340.95L186.667,321.07L177.707,321.07L177.707,369.93L186.667,369.93L186.667,348.37Z" style="fill-rule:nonzero;"/>
            </g>
            <g transform="matrix(1.12612,0,0,1.12612,155.588,-236.033)">
                <path d="M238.537,365.03L238.677,365.03C238.677,366.78 238.747,368.53 239.167,369.93L247.007,369.93C246.797,368.53 246.517,366.15 246.517,363.56L246.517,347.81C246.517,338.78 243.927,333.32 232.727,333.32C227.197,333.32 223.767,334.86 221.317,335.98L221.807,342.98C223.487,341.58 227.337,339.48 231.677,339.48C236.647,339.48 238.397,342.77 238.397,346.34L238.397,347.67L236.647,347.67C225.657,347.67 217.677,350.12 217.677,359.92C217.677,366.64 222.857,370.49 228.457,370.49C233.637,370.49 236.367,367.97 238.537,365.03ZM231.327,364.61C227.967,364.61 225.797,362.37 225.797,359.08C225.797,353.83 230.207,352.29 237.627,352.29L238.397,352.29L238.397,354.32C238.397,360.76 236.507,364.61 231.327,364.61Z" style="fill-rule:nonzero;"/>
            </g>
            <g transform="matrix(1.12612,0,0,1.12612,155.588,-236.033)">
                <path d="M275.567,333.88L268.147,361.67L268.007,361.67L260.657,333.88L251.697,333.88L262.687,369.93L272.907,369.93L283.967,333.88L275.567,333.88Z" style="fill-rule:nonzero;"/>
            </g>
            <g transform="matrix(1.12612,0,0,1.12612,155.588,-236.033)">
                <path d="M314.977,361.32C313.367,362.51 310.847,364.12 305.527,364.12C298.807,364.12 296.357,360.41 296.357,354.25L317.217,354.25L317.217,352.57C317.217,337.87 310.567,333.32 302.797,333.32C293.627,333.32 287.957,341.65 287.957,352.43C287.957,362.16 292.997,370.49 304.617,370.49C309.797,370.49 313.577,368.95 315.397,368.18L314.977,361.32ZM302.797,339.2C306.717,339.2 308.817,342.42 308.817,348.79L296.357,348.79C296.357,344.03 298.247,339.2 302.797,339.2Z" style="fill-rule:nonzero;"/>
            </g>
            <g transform="matrix(1.12612,0,0,1.12612,155.588,-236.033)">
                <rect x="325.127" y="317.43" width="8.68" height="52.5"/>
            </g>
            <g transform="matrix(1.12612,0,0,1.12612,155.588,-236.033)">
                <rect x="341.857" y="346.48" width="16.17" height="7.14"/>
            </g>
            <g transform="matrix(1.12612,0,0,1.12612,155.588,-236.033)">
                <path d="M384.417,342.77L379.167,339.83C376.437,338.29 373.987,336.89 373.987,333.25C373.987,329.89 376.297,327.51 380.777,327.51C384.907,327.51 387.777,328.77 389.947,329.61L390.367,322.12C388.967,321.7 385.327,320.37 380.147,320.37C371.957,320.37 364.747,324.92 364.747,333.67C364.747,339.97 367.897,343.82 372.727,346.48L377.277,349C381.617,351.38 383.647,352.92 383.647,356.42C383.647,361.32 380.147,363.49 376.227,363.49C371.467,363.49 367.617,361.6 365.867,360.48L365.377,368.46C367.827,369.93 371.607,370.63 376.507,370.63C385.817,370.63 392.887,365.87 392.887,355.93C392.887,349.07 390.157,345.99 384.417,342.77Z" style="fill-rule:nonzero;"/>
            </g>
            <g transform="matrix(1.12612,0,0,1.12612,155.588,-236.033)">
                <path d="M431.317,351.87C431.317,341.86 427.607,333.32 418.647,333.32C413.047,333.32 410.457,336.4 409.057,339.48L408.847,339.48C408.847,337.03 408.707,334.93 408.567,333.88L400.447,333.88C400.657,335.21 400.727,337.45 400.727,340.04L400.727,385.05L409.407,385.05L409.407,364.75L409.547,364.75C410.807,367.55 413.677,370.49 418.857,370.49C426.627,370.49 431.317,363.63 431.317,351.87ZM409.407,352.01C409.407,345.22 411.157,339.69 416.267,339.69C421.307,339.69 422.637,343.89 422.637,352.22C422.637,359.43 420.957,364.12 416.127,364.12C411.367,364.12 409.407,359.01 409.407,352.01Z" style="fill-rule:nonzero;"/>
            </g>
            <g transform="matrix(1.12612,0,0,1.12612,155.588,-236.033)">
                <path d="M446.787,340.46L446.647,340.46C446.647,338.29 446.437,336.05 446.367,333.88L438.527,333.88C438.737,335.49 438.807,337.59 438.807,339.83L438.807,369.93L447.487,369.93L447.487,350.19C447.487,343.47 451.407,341.3 454.977,341.3C455.887,341.3 456.657,341.44 457.427,341.65L457.427,333.53C456.937,333.46 456.517,333.32 455.957,333.32C450.567,333.32 447.837,337.66 446.787,340.46Z" style="fill-rule:nonzero;"/>
            </g>
            <g transform="matrix(1.12612,0,0,1.12612,155.588,-236.033)">
                <path d="M488.857,361.32C487.247,362.51 484.727,364.12 479.407,364.12C472.687,364.12 470.237,360.41 470.237,354.25L491.097,354.25L491.097,352.57C491.097,337.87 484.447,333.32 476.677,333.32C467.507,333.32 461.837,341.65 461.837,352.43C461.837,362.16 466.877,370.49 478.497,370.49C483.677,370.49 487.457,368.95 489.277,368.18L488.857,361.32ZM476.677,339.2C480.597,339.2 482.697,342.42 482.697,348.79L470.237,348.79C470.237,344.03 472.127,339.2 476.677,339.2Z" style="fill-rule:nonzero;"/>
            </g>
            <g transform="matrix(1.12612,0,0,1.12612,155.588,-236.033)">
                <path d="M513.847,370.49C519.027,370.49 522.807,368.95 524.627,368.18L524.207,361.32C522.597,362.51 520.077,364.12 514.757,364.12C508.037,364.12 505.587,360.41 505.587,354.25L526.447,354.25L526.447,352.57C526.447,337.87 519.797,333.32 512.027,333.32C502.857,333.32 497.187,341.65 497.187,352.43C497.187,362.16 502.227,370.49 513.847,370.49ZM512.027,339.2C515.947,339.2 518.047,342.42 518.047,348.79L505.587,348.79C505.587,344.03 507.477,339.2 512.027,339.2Z" style="fill-rule:nonzero;"/>
            </g>
            <g transform="matrix(1.12612,0,0,1.12612,155.588,-236.033)">
                <path d="M562.287,328.21L578.037,328.21L578.037,321.07L553.327,321.07L553.327,369.93L562.287,369.93L562.287,348.65L577.337,348.65L577.337,341.51L562.287,341.51L562.287,328.21Z" style="fill-rule:nonzero;"/>
            </g>
            <g transform="matrix(1.12612,0,0,1.12612,155.588,-236.033)">
                <rect x="585.517" y="318.55" width="8.97" height="8.54"/>
            </g>
            <g transform="matrix(1.12612,0,0,1.12612,155.588,-236.033)">
                <rect x="585.667" y="333.88" width="8.68" height="36.05"/>
            </g>
            <g transform="matrix(1.12612,0,0,1.12612,155.588,-236.033)">
                <path d="M623.187,348.3L623.187,369.93L631.867,369.93L631.867,346.69C631.867,339.41 629.417,333.32 621.227,333.32C615.347,333.32 612.897,337.24 611.637,339.41L611.497,339.41C611.497,337.59 611.287,335.7 611.207,333.88L603.087,333.88C603.297,335.49 603.367,337.59 603.367,339.83L603.367,369.93L612.057,369.93L612.057,348.93C612.057,344.31 613.667,340.46 618.217,340.46C621.787,340.46 623.187,342.77 623.187,348.3Z" style="fill-rule:nonzero;"/>
            </g>
            <g transform="matrix(1.12612,0,0,1.12612,155.588,-236.033)">
                <path d="M659.167,365.03C659.167,366.78 659.237,368.53 659.657,369.93L667.497,369.93C667.287,368.53 667.007,366.15 667.007,363.56L667.007,347.81C667.007,338.78 664.417,333.32 653.217,333.32C647.677,333.32 644.247,334.86 641.797,335.98L642.287,342.98C643.967,341.58 647.827,339.48 652.167,339.48C657.137,339.48 658.887,342.77 658.887,346.34L658.887,347.67L657.137,347.67C646.137,347.67 638.157,350.12 638.157,359.92C638.157,366.64 643.337,370.49 648.947,370.49C654.127,370.49 656.857,367.97 659.027,365.03L659.167,365.03ZM658.887,354.32C658.887,360.76 656.997,364.61 651.817,364.61C648.457,364.61 646.287,362.37 646.287,359.08C646.287,353.83 650.697,352.29 658.117,352.29L658.887,352.29L658.887,354.32Z" style="fill-rule:nonzero;"/>
            </g>
            <g transform="matrix(1.12612,0,0,1.12612,155.588,-236.033)">
                <path d="M693.257,333.32C687.367,333.32 684.917,337.24 683.667,339.41L683.517,339.41C683.517,337.59 683.307,335.7 683.237,333.88L675.117,333.88C675.327,335.49 675.397,337.59 675.397,339.83L675.397,369.93L684.077,369.93L684.077,348.93C684.077,344.31 685.697,340.46 690.247,340.46C693.817,340.46 695.217,342.77 695.217,348.3L695.217,369.93L703.897,369.93L703.897,346.69C703.897,339.41 701.447,333.32 693.257,333.32Z" style="fill-rule:nonzero;"/>
            </g>
            <g transform="matrix(1.12612,0,0,1.12612,155.588,-236.033)">
                <path d="M734.697,363.35L719.077,363.35L734.207,341.3L734.207,333.88L710.607,333.88L710.607,340.46L725.527,340.46L710.117,362.44L710.117,369.93L734.697,369.93L734.697,363.35Z" style="fill-rule:nonzero;"/>
            </g>
            <g transform="matrix(1.12612,0,0,1.12612,155.588,-236.033)">
                <path d="M178.267,437.3L181.367,437.3L181.367,420.6L191.967,420.6L191.967,417.7L181.367,417.7L181.367,405.3L192.517,405.3L192.517,402.4L178.267,402.4L178.267,437.3Z" style="fill-rule:nonzero;"/>
            </g>
            <g transform="matrix(1.12612,0,0,1.12612,155.588,-236.033)">
                <rect x="198.467" y="401.65" width="3.5" height="4.5"/>
            </g>
            <g transform="matrix(1.12612,0,0,1.12612,155.588,-236.033)">
                <rect x="198.767" y="411.8" width="2.9" height="25.5"/>
            </g>
            <g transform="matrix(1.12612,0,0,1.12612,155.588,-236.033)">
                <path d="M225.307,417.17C225.177,416.52 224.967,415.86 224.687,415.17C224.407,414.49 224.007,413.88 223.487,413.33C222.967,412.77 222.307,412.33 221.487,411.97C220.667,411.63 219.677,411.45 218.517,411.45C217.447,411.45 216.537,411.61 215.787,411.92C215.037,412.24 214.407,412.63 213.887,413.08C213.367,413.52 212.957,413.98 212.667,414.45C212.357,414.92 212.147,415.28 212.017,415.55L211.907,415.55C211.877,414.62 211.857,413.9 211.837,413.4C211.817,412.9 211.777,412.37 211.707,411.8L209.017,411.8C209.047,413.13 209.087,414.45 209.137,415.75C209.187,417.05 209.207,418.37 209.207,419.7L209.207,437.3L212.107,437.3L212.107,421.45C212.107,420.45 212.247,419.51 212.517,418.63C212.777,417.74 213.167,416.97 213.667,416.3C214.167,415.63 214.767,415.11 215.487,414.72C216.207,414.34 217.017,414.15 217.907,414.15C219.107,414.15 220.027,414.38 220.667,414.83C221.297,415.27 221.767,415.82 222.057,416.45C222.357,417.08 222.537,417.74 222.587,418.42C222.637,419.11 222.667,419.67 222.667,420.1L222.667,437.3L225.557,437.3L225.557,420.2C225.557,419.93 225.557,419.52 225.537,418.97C225.517,418.42 225.447,417.83 225.307,417.17Z" style="fill-rule:nonzero;"/>
            </g>
            <g transform="matrix(1.12612,0,0,1.12612,155.588,-236.033)">
                <path d="M248.357,431.6L248.357,419.9C248.357,419.43 248.317,418.73 248.237,417.8C248.157,416.87 247.867,415.92 247.387,414.97C246.907,414.02 246.127,413.2 245.057,412.5C243.997,411.8 242.477,411.45 240.507,411.45C239.107,411.45 237.897,411.66 236.857,412.08C235.827,412.49 234.707,413.03 233.507,413.7L233.957,416.7C234.027,416.63 234.247,416.46 234.607,416.19C234.977,415.92 235.447,415.63 236.007,415.33C236.577,415.02 237.227,414.75 237.957,414.51C238.697,414.27 239.497,414.15 240.357,414.15C241.697,414.15 242.717,414.41 243.437,414.92C244.157,415.44 244.677,416.08 245.007,416.85C245.347,417.62 245.537,418.46 245.587,419.38C245.637,420.29 245.667,421.15 245.667,421.95L243.807,421.95C243.207,421.95 242.487,421.97 241.637,422C240.787,422.03 239.907,422.13 238.987,422.3C238.067,422.47 237.167,422.72 236.287,423.05C235.407,423.38 234.607,423.86 233.887,424.47C233.167,425.09 232.597,425.87 232.167,426.8C231.727,427.73 231.507,428.88 231.507,430.25C231.507,431.28 231.697,432.25 232.057,433.15C232.427,434.05 232.937,434.83 233.587,435.5C234.237,436.17 234.987,436.69 235.837,437.08C236.687,437.46 237.607,437.65 238.607,437.65C240.277,437.65 241.667,437.33 242.787,436.7C243.907,436.07 244.897,435.05 245.757,433.65L245.857,433.65L246.057,437.3L248.667,437.3C248.597,436.33 248.527,435.38 248.457,434.45C248.397,433.52 248.357,432.57 248.357,431.6ZM245.667,427.45C245.667,429.18 245.397,430.55 244.857,431.55C244.327,432.55 243.707,433.3 242.987,433.8C242.267,434.3 241.557,434.62 240.857,434.75C240.167,434.88 239.647,434.95 239.307,434.95C238.547,434.95 237.867,434.81 237.287,434.52C236.707,434.24 236.207,433.88 235.807,433.42C235.407,432.97 235.107,432.47 234.907,431.9C234.707,431.33 234.607,430.78 234.607,430.25C234.607,428.82 234.907,427.7 235.487,426.9C236.067,426.1 236.867,425.52 237.887,425.17C238.907,424.83 240.077,424.62 241.407,424.55C242.747,424.48 244.167,424.45 245.667,424.45L245.667,427.45Z" style="fill-rule:nonzero;"/>
            </g>
            <g transform="matrix(1.12612,0,0,1.12612,155.588,-236.033)">
                <path d="M271.657,417.17C271.527,416.52 271.317,415.86 271.037,415.17C270.757,414.49 270.357,413.88 269.837,413.33C269.317,412.77 268.657,412.33 267.837,411.97C267.017,411.63 266.027,411.45 264.857,411.45C263.797,411.45 262.887,411.61 262.137,411.92C261.387,412.24 260.757,412.63 260.237,413.08C259.717,413.52 259.307,413.98 259.007,414.45C258.707,414.92 258.497,415.28 258.357,415.55L258.257,415.55C258.227,414.62 258.207,413.9 258.187,413.4C258.167,412.9 258.127,412.37 258.057,411.8L255.357,411.8C255.397,413.13 255.437,414.45 255.487,415.75C255.537,417.05 255.557,418.37 255.557,419.7L255.557,437.3L258.457,437.3L258.457,421.45C258.457,420.45 258.597,419.51 258.857,418.63C259.127,417.74 259.507,416.97 260.007,416.3C260.507,415.63 261.117,415.11 261.837,414.72C262.557,414.34 263.357,414.15 264.257,414.15C265.457,414.15 266.377,414.38 267.007,414.83C267.647,415.27 268.107,415.82 268.407,416.45C268.707,417.08 268.887,417.74 268.937,418.42C268.987,419.11 269.007,419.67 269.007,420.1L269.007,437.3L271.907,437.3L271.907,420.2C271.907,419.93 271.907,419.52 271.887,418.97C271.867,418.42 271.797,417.83 271.657,417.17Z" style="fill-rule:nonzero;"/>
            </g>
            <g transform="matrix(1.12612,0,0,1.12612,155.588,-236.033)">
                <path d="M292.607,414.7L292.607,411.8L277.707,411.8L277.707,414.5L289.507,414.5L277.307,434.4L277.307,437.3L292.807,437.3L292.807,434.6L280.407,434.6L292.607,414.7Z" style="fill-rule:nonzero;"/>
            </g>
            <g transform="matrix(1.12612,0,0,1.12612,155.588,-236.033)">
                <rect x="298.157" y="401.65" width="3.5" height="4.5"/>
            </g>
            <g transform="matrix(1.12612,0,0,1.12612,155.588,-236.033)">
                <rect x="298.457" y="411.8" width="2.9" height="25.5"/>
            </g>
            <g transform="matrix(1.12612,0,0,1.12612,155.588,-236.033)">
                <path d="M324.537,420.7C324.387,419.03 324.027,417.52 323.457,416.15C322.897,414.78 322.067,413.66 320.987,412.77C319.897,411.89 318.447,411.45 316.607,411.45C315.547,411.45 314.467,411.68 313.387,412.15C312.297,412.62 311.327,413.37 310.457,414.4C309.597,415.43 308.897,416.78 308.357,418.45C307.827,420.12 307.557,422.15 307.557,424.55C307.557,424.98 307.577,425.6 307.607,426.4C307.647,427.2 307.747,428.09 307.937,429.08C308.117,430.06 308.407,431.06 308.807,432.08C309.207,433.09 309.777,434.01 310.507,434.83C311.247,435.64 312.187,436.32 313.337,436.85C314.487,437.38 315.897,437.65 317.557,437.65C319.097,437.65 320.317,437.49 321.237,437.17C322.147,436.86 322.907,436.53 323.507,436.2L323.357,432.85C322.627,433.52 321.737,434.03 320.687,434.4C319.637,434.77 318.697,434.95 317.857,434.95C317.557,434.95 317.017,434.9 316.237,434.8C315.447,434.7 314.647,434.36 313.837,433.77C313.017,433.19 312.287,432.26 311.637,430.97C310.987,429.69 310.657,427.87 310.657,425.5L324.757,425.5C324.757,423.97 324.687,422.37 324.537,420.7ZM310.657,422.8C310.657,421.97 310.777,421.05 311.007,420.05C311.247,419.05 311.597,418.12 312.087,417.25C312.567,416.38 313.167,415.65 313.887,415.05C314.597,414.45 315.457,414.15 316.457,414.15C317.057,414.15 317.667,414.28 318.287,414.55C318.897,414.82 319.457,415.28 319.957,415.95C320.457,416.62 320.867,417.5 321.187,418.6C321.497,419.7 321.657,421.1 321.657,422.8L310.657,422.8Z" style="fill-rule:nonzero;"/>
            </g>
            <g transform="matrix(1.12612,0,0,1.12612,155.588,-236.033)">
                <path d="M336.557,412.27C335.997,412.59 335.457,413.04 334.957,413.63C334.457,414.21 333.977,414.95 333.507,415.85L333.407,415.85C333.377,415.32 333.347,414.7 333.307,414C333.277,413.3 333.247,412.57 333.207,411.8L330.507,411.8C330.547,413.13 330.587,414.45 330.637,415.75C330.687,417.05 330.707,418.37 330.707,419.7L330.707,437.3L333.607,437.3L333.607,421.25C333.607,418.88 334.147,417.17 335.237,416.13C336.317,415.08 338.007,414.55 340.307,414.55L340.307,411.45C339.607,411.45 338.947,411.51 338.337,411.63C337.717,411.74 337.127,411.96 336.557,412.27Z" style="fill-rule:nonzero;"/>
            </g>
            <g transform="matrix(1.12612,0,0,1.12612,155.588,-236.033)">
                <path d="M361.457,429.4L361.457,411.8L358.557,411.8L358.557,427.65C358.557,428.65 358.427,429.59 358.157,430.47C357.897,431.36 357.507,432.13 357.007,432.8C356.507,433.47 355.897,433.99 355.187,434.38C354.467,434.76 353.657,434.95 352.757,434.95C351.557,434.95 350.647,434.72 350.007,434.27C349.377,433.83 348.907,433.28 348.607,432.65C348.307,432.02 348.137,431.36 348.087,430.67C348.037,429.99 348.007,429.43 348.007,429L348.007,411.8L345.107,411.8L345.107,429.6C345.107,430.6 345.217,431.58 345.437,432.55C345.647,433.52 346.027,434.38 346.557,435.13C347.097,435.88 347.807,436.48 348.707,436.95C349.607,437.42 350.757,437.65 352.157,437.65C353.227,437.65 354.147,437.49 354.937,437.17C355.717,436.86 356.367,436.47 356.887,436.02C357.397,435.58 357.807,435.12 358.107,434.65C358.407,434.18 358.597,433.82 358.657,433.55L358.757,433.55C358.797,434.48 358.817,435.2 358.837,435.7C358.847,436.2 358.897,436.73 358.957,437.3L361.657,437.3C361.627,435.97 361.587,434.65 361.537,433.35C361.487,432.05 361.457,430.73 361.457,429.4Z" style="fill-rule:nonzero;"/>
            </g>
            <g transform="matrix(1.12612,0,0,1.12612,155.588,-236.033)">
                <path d="M384.857,417.17C384.727,416.52 384.517,415.86 384.237,415.17C383.947,414.49 383.547,413.88 383.037,413.33C382.517,412.77 381.847,412.33 381.037,411.97C380.217,411.63 379.227,411.45 378.057,411.45C376.997,411.45 376.087,411.61 375.337,411.92C374.587,412.24 373.947,412.63 373.437,413.08C372.917,413.52 372.507,413.98 372.207,414.45C371.907,414.92 371.697,415.28 371.557,415.55L371.457,415.55C371.427,414.62 371.397,413.9 371.387,413.4C371.367,412.9 371.327,412.37 371.257,411.8L368.557,411.8C368.597,413.13 368.637,414.45 368.687,415.75C368.737,417.05 368.757,418.37 368.757,419.7L368.757,437.3L371.657,437.3L371.657,421.45C371.657,420.45 371.797,419.51 372.057,418.63C372.327,417.74 372.707,416.97 373.207,416.3C373.707,415.63 374.317,415.11 375.037,414.72C375.747,414.34 376.557,414.15 377.457,414.15C378.657,414.15 379.577,414.38 380.207,414.83C380.847,415.27 381.307,415.82 381.607,416.45C381.907,417.08 382.087,417.74 382.137,418.42C382.187,419.11 382.207,419.67 382.207,420.1L382.207,437.3L385.107,437.3L385.107,420.2C385.107,419.93 385.097,419.52 385.087,418.97C385.067,418.42 384.997,417.83 384.857,417.17Z" style="fill-rule:nonzero;"/>
            </g>
            <g transform="matrix(1.12612,0,0,1.12612,155.588,-236.033)">
                <path d="M406.457,415.55L406.357,415.55C405.597,414.22 404.687,413.2 403.637,412.5C402.587,411.8 401.257,411.45 399.657,411.45C398.257,411.45 397.087,411.72 396.137,412.25C395.187,412.78 394.397,413.47 393.757,414.3C393.127,415.13 392.627,416.08 392.257,417.13C391.897,418.17 391.617,419.22 391.437,420.27C391.247,421.33 391.147,422.31 391.107,423.22C391.077,424.14 391.057,424.9 391.057,425.5C391.057,426.7 391.197,428.01 391.487,429.42C391.767,430.84 392.237,432.16 392.887,433.38C393.537,434.59 394.397,435.61 395.487,436.42C396.567,437.24 397.907,437.65 399.507,437.65C401.047,437.65 402.307,437.33 403.307,436.67C404.307,436.02 405.197,435.07 405.957,433.8L406.057,433.8L406.057,437.3C406.057,437.97 406.007,438.77 405.907,439.72C405.807,440.67 405.537,441.59 405.087,442.47C404.637,443.36 403.957,444.12 403.057,444.75C402.157,445.38 400.927,445.7 399.357,445.7C398.527,445.7 397.457,445.55 396.157,445.25C394.857,444.95 393.597,444.45 392.357,443.75L392.157,447C392.957,447.27 393.657,447.48 394.257,447.65C394.857,447.82 395.427,447.96 395.957,448.08C396.497,448.19 397.027,448.27 397.557,448.33C398.097,448.38 398.707,448.4 399.407,448.4C402.807,448.4 405.247,447.35 406.737,445.25C408.217,443.15 408.957,440.3 408.957,436.7L408.957,420.25C408.957,418.25 408.977,416.62 409.007,415.35C409.047,414.08 409.097,412.9 409.157,411.8L406.457,411.8L406.457,415.55ZM405.957,428.63C405.757,429.94 405.417,431.07 404.937,432C404.447,432.93 403.807,433.66 403.007,434.17C402.207,434.69 401.207,434.95 400.007,434.95C398.907,434.95 397.997,434.68 397.257,434.15C396.527,433.62 395.927,432.88 395.457,431.95C394.997,431.02 394.657,429.92 394.457,428.65C394.257,427.38 394.157,426.02 394.157,424.55C394.157,424.22 394.167,423.72 394.187,423.08C394.197,422.42 394.267,421.71 394.387,420.92C394.497,420.14 394.667,419.35 394.887,418.55C395.097,417.75 395.427,417.02 395.857,416.38C396.297,415.72 396.847,415.19 397.507,414.77C398.177,414.36 398.997,414.15 399.957,414.15C401.197,414.15 402.217,414.43 403.037,415C403.847,415.57 404.497,416.32 404.957,417.25C405.427,418.18 405.757,419.26 405.957,420.47C406.157,421.69 406.257,422.95 406.257,424.25C406.257,425.85 406.157,427.31 405.957,428.63Z" style="fill-rule:nonzero;"/>
            </g>
            <g transform="matrix(1.12612,0,0,1.12612,155.588,-236.033)">
                <path d="M431.687,420.7C431.537,419.03 431.177,417.52 430.607,416.15C430.047,414.78 429.217,413.66 428.137,412.77C427.047,411.89 425.597,411.45 423.757,411.45C422.697,411.45 421.617,411.68 420.537,412.15C419.447,412.62 418.477,413.37 417.607,414.4C416.747,415.43 416.047,416.78 415.507,418.45C414.977,420.12 414.707,422.15 414.707,424.55C414.707,424.98 414.727,425.6 414.757,426.4C414.797,427.2 414.897,428.09 415.087,429.08C415.267,430.06 415.557,431.06 415.957,432.08C416.357,433.09 416.927,434.01 417.657,434.83C418.397,435.64 419.337,436.32 420.487,436.85C421.637,437.38 423.047,437.65 424.707,437.65C426.247,437.65 427.467,437.49 428.387,437.17C429.297,436.86 430.057,436.53 430.657,436.2L430.507,432.85C429.777,433.52 428.887,434.03 427.837,434.4C426.787,434.77 425.847,434.95 425.007,434.95C424.707,434.95 424.167,434.9 423.387,434.8C422.597,434.7 421.797,434.36 420.987,433.77C420.167,433.19 419.437,432.26 418.787,430.97C418.137,429.69 417.807,427.87 417.807,425.5L431.907,425.5C431.907,423.97 431.837,422.37 431.687,420.7ZM417.807,422.8C417.807,421.97 417.927,421.05 418.157,420.05C418.397,419.05 418.747,418.12 419.237,417.25C419.717,416.38 420.317,415.65 421.037,415.05C421.747,414.45 422.607,414.15 423.607,414.15C424.207,414.15 424.817,414.28 425.437,414.55C426.047,414.82 426.607,415.28 427.107,415.95C427.607,416.62 428.017,417.5 428.337,418.6C428.647,419.7 428.807,421.1 428.807,422.8L417.807,422.8Z" style="fill-rule:nonzero;"/>
            </g>
            <g transform="matrix(1.12612,0,0,1.12612,155.588,-236.033)">
                <path d="M453.957,417.17C453.827,416.52 453.617,415.86 453.337,415.17C453.047,414.49 452.647,413.88 452.137,413.33C451.617,412.77 450.947,412.33 450.137,411.97C449.317,411.63 448.327,411.45 447.157,411.45C446.097,411.45 445.187,411.61 444.437,411.92C443.687,412.24 443.047,412.63 442.537,413.08C442.017,413.52 441.607,413.98 441.307,414.45C441.007,414.92 440.797,415.28 440.657,415.55L440.557,415.55C440.527,414.62 440.497,413.9 440.487,413.4C440.467,412.9 440.427,412.37 440.357,411.8L437.657,411.8C437.697,413.13 437.737,414.45 437.787,415.75C437.837,417.05 437.857,418.37 437.857,419.7L437.857,437.3L440.757,437.3L440.757,421.45C440.757,420.45 440.887,419.51 441.157,418.63C441.427,417.74 441.807,416.97 442.307,416.3C442.807,415.63 443.417,415.11 444.137,414.72C444.847,414.34 445.657,414.15 446.557,414.15C447.757,414.15 448.677,414.38 449.307,414.83C449.947,415.27 450.407,415.82 450.707,416.45C451.007,417.08 451.187,417.74 451.237,418.42C451.287,419.11 451.307,419.67 451.307,420.1L451.307,437.3L454.207,437.3L454.207,420.2C454.207,419.93 454.197,419.52 454.187,418.97C454.167,418.42 454.097,417.83 453.957,417.17Z" style="fill-rule:nonzero;"/>
            </g>
            <g transform="matrix(1.12612,0,0,1.12612,155.588,-236.033)">
                <path d="M472.607,419.15C471.837,419.15 471.187,419.42 470.657,419.95C470.127,420.48 469.857,421.13 469.857,421.9C469.857,422.67 470.127,423.32 470.657,423.85C471.187,424.38 471.837,424.65 472.607,424.65C473.377,424.65 474.027,424.38 474.557,423.85C475.087,423.32 475.357,422.67 475.357,421.9C475.357,421.13 475.087,420.48 474.557,419.95C474.027,419.42 473.377,419.15 472.607,419.15Z" style="fill-rule:nonzero;"/>
            </g>
            <g transform="matrix(1.12612,0,0,1.12612,155.588,-236.033)">
                <path d="M498.107,433L498.007,433L489.457,402.4L486.157,402.4L496.607,437.3L499.507,437.3L510.507,402.4L507.407,402.4L498.107,433Z" style="fill-rule:nonzero;"/>
            </g>
            <g transform="matrix(1.12612,0,0,1.12612,155.588,-236.033)">
                <path d="M529.187,420.7C529.037,419.03 528.677,417.52 528.107,416.15C527.537,414.78 526.717,413.66 525.637,412.77C524.547,411.89 523.087,411.45 521.257,411.45C520.187,411.45 519.117,411.68 518.037,412.15C516.947,412.62 515.977,413.37 515.107,414.4C514.237,415.43 513.537,416.78 513.007,418.45C512.477,420.12 512.207,422.15 512.207,424.55C512.207,424.98 512.227,425.6 512.257,426.4C512.287,427.2 512.397,428.09 512.587,429.08C512.767,430.06 513.057,431.06 513.457,432.08C513.857,433.09 514.427,434.01 515.157,434.83C515.887,435.64 516.837,436.32 517.987,436.85C519.137,437.38 520.537,437.65 522.207,437.65C523.737,437.65 524.967,437.49 525.887,437.17C526.797,436.86 527.557,436.53 528.157,436.2L528.007,432.85C527.277,433.52 526.387,434.03 525.337,434.4C524.287,434.77 523.337,434.95 522.507,434.95C522.207,434.95 521.667,434.9 520.887,434.8C520.097,434.7 519.297,434.36 518.487,433.77C517.667,433.19 516.937,432.26 516.287,430.97C515.637,429.69 515.307,427.87 515.307,425.5L529.407,425.5C529.407,423.97 529.337,422.37 529.187,420.7ZM515.307,422.8C515.307,421.97 515.427,421.05 515.657,420.05C515.887,419.05 516.247,418.12 516.737,417.25C517.217,416.38 517.817,415.65 518.537,415.05C519.247,414.45 520.107,414.15 521.107,414.15C521.707,414.15 522.317,414.28 522.937,414.55C523.547,414.82 524.107,415.28 524.607,415.95C525.107,416.62 525.517,417.5 525.837,418.6C526.147,419.7 526.307,421.1 526.307,422.8L515.307,422.8Z" style="fill-rule:nonzero;"/>
            </g>
            <g transform="matrix(1.12612,0,0,1.12612,155.588,-236.033)">
                <path d="M541.407,412.27C540.837,412.59 540.307,413.04 539.807,413.63C539.307,414.21 538.827,414.95 538.357,415.85L538.257,415.85C538.227,415.32 538.187,414.7 538.157,414C538.127,413.3 538.087,412.57 538.057,411.8L535.357,411.8C535.387,413.13 535.437,414.45 535.487,415.75C535.537,417.05 535.557,418.37 535.557,419.7L535.557,437.3L538.457,437.3L538.457,421.25C538.457,418.88 538.997,417.17 540.087,416.13C541.167,415.08 542.857,414.55 545.157,414.55L545.157,411.45C544.457,411.45 543.797,411.51 543.187,411.63C542.567,411.74 541.977,411.96 541.407,412.27Z" style="fill-rule:nonzero;"/>
            </g>
            <g transform="matrix(1.12612,0,0,1.12612,155.588,-236.033)">
                <path d="M560.787,425.77C560.237,425.22 559.577,424.73 558.807,424.3C558.037,423.87 557.227,423.42 556.357,422.95C555.487,422.48 554.777,422.08 554.207,421.75C553.637,421.42 553.197,421.08 552.887,420.75C552.567,420.42 552.337,420.06 552.207,419.67C552.077,419.29 552.007,418.8 552.007,418.2C552.007,417.77 552.087,417.31 552.257,416.83C552.427,416.34 552.687,415.9 553.057,415.5C553.427,415.1 553.877,414.77 554.407,414.52C554.937,414.27 555.587,414.15 556.357,414.15C557.187,414.15 557.937,414.25 558.607,414.44C559.277,414.64 559.977,414.86 560.707,415.1L561.107,412.2C560.637,412.03 559.957,411.87 559.057,411.7C558.157,411.53 557.277,411.45 556.407,411.45C555.537,411.45 554.667,411.59 553.787,411.88C552.897,412.16 552.097,412.59 551.387,413.17C550.667,413.76 550.077,414.49 549.607,415.38C549.137,416.26 548.907,417.3 548.907,418.5C548.907,419.4 549.017,420.17 549.237,420.83C549.447,421.47 549.797,422.07 550.287,422.6C550.767,423.13 551.387,423.63 552.157,424.1C552.927,424.57 553.837,425.07 554.907,425.6C555.637,425.97 556.297,426.32 556.887,426.65C557.467,426.98 557.937,427.34 558.307,427.72C558.677,428.11 558.957,428.52 559.157,428.97C559.357,429.42 559.457,429.95 559.457,430.55C559.457,431.72 559.027,432.74 558.157,433.63C557.287,434.51 556.157,434.95 554.757,434.95C554.157,434.95 553.557,434.88 552.957,434.75C552.357,434.62 551.797,434.47 551.287,434.3C550.767,434.13 550.297,433.95 549.887,433.75C549.467,433.55 549.157,433.37 548.957,433.2L548.557,436.45C549.327,436.72 550.187,436.98 551.157,437.25C552.127,437.52 553.407,437.65 555.007,437.65C556.077,437.65 557.067,437.48 557.987,437.15C558.897,436.82 559.697,436.33 560.387,435.67C561.067,435.02 561.597,434.25 561.987,433.35C562.367,432.45 562.557,431.42 562.557,430.25C562.557,429.22 562.397,428.35 562.087,427.65C561.767,426.95 561.337,426.33 560.787,425.77Z" style="fill-rule:nonzero;"/>
            </g>
            <g transform="matrix(1.12612,0,0,1.12612,155.588,-236.033)">
                <rect x="568.407" y="401.65" width="3.5" height="4.5"/>
            </g>
            <g transform="matrix(1.12612,0,0,1.12612,155.588,-236.033)">
                <rect x="568.707" y="411.8" width="2.9" height="25.5"/>
            </g>
            <g transform="matrix(1.12612,0,0,1.12612,155.588,-236.033)">
                <path d="M592.457,434.05C592.087,434.22 591.697,434.35 591.287,434.45C590.867,434.55 590.457,434.63 590.057,434.67C589.657,434.72 589.307,434.75 589.007,434.75C588.307,434.75 587.507,434.62 586.607,434.35C585.707,434.08 584.847,433.56 584.037,432.77C583.217,431.99 582.527,430.88 581.957,429.45C581.387,428.02 581.107,426.13 581.107,423.8C581.107,422.1 581.317,420.66 581.737,419.47C582.147,418.29 582.697,417.32 583.387,416.55C584.067,415.78 584.857,415.22 585.757,414.88C586.657,414.52 587.587,414.35 588.557,414.35C589.327,414.35 590.137,414.45 591.007,414.65C591.877,414.85 592.587,415.18 593.157,415.65L593.307,412.35C592.707,412.08 592.027,411.87 591.257,411.7C590.487,411.53 589.587,411.45 588.557,411.45C586.787,411.45 585.237,411.77 583.907,412.42C582.577,413.08 581.477,413.97 580.607,415.13C579.737,416.27 579.087,417.67 578.657,419.3C578.227,420.93 578.007,422.72 578.007,424.65C578.007,426.85 578.307,428.77 578.907,430.4C579.507,432.03 580.297,433.38 581.287,434.45C582.267,435.52 583.387,436.32 584.657,436.85C585.927,437.38 587.237,437.65 588.607,437.65C589.507,437.65 590.397,437.56 591.287,437.38C592.167,437.19 592.927,436.97 593.557,436.7L593.307,433.4C593.107,433.67 592.827,433.88 592.457,434.05Z" style="fill-rule:nonzero;"/>
            </g>
            <g transform="matrix(1.12612,0,0,1.12612,155.588,-236.033)">
                <path d="M614.657,417.17C614.527,416.52 614.317,415.86 614.037,415.17C613.747,414.49 613.347,413.88 612.827,413.33C612.317,412.77 611.647,412.33 610.827,411.97C610.017,411.63 609.027,411.45 607.857,411.45C606.857,411.45 605.987,411.61 605.237,411.92C604.487,412.24 603.857,412.63 603.357,413.08C602.857,413.52 602.467,413.98 602.187,414.45C601.897,414.92 601.687,415.28 601.557,415.55L601.457,415.55L601.457,399.8L598.557,399.8L598.557,437.3L601.457,437.3L601.457,421.45C601.457,420.45 601.587,419.51 601.857,418.63C602.127,417.74 602.507,416.97 603.007,416.3C603.507,415.63 604.117,415.11 604.827,414.72C605.547,414.34 606.357,414.15 607.257,414.15C608.457,414.15 609.377,414.38 610.007,414.83C610.637,415.27 611.107,415.82 611.407,416.45C611.707,417.08 611.877,417.74 611.937,418.42C611.987,419.11 612.007,419.67 612.007,420.1L612.007,437.3L614.907,437.3L614.907,420.2C614.907,419.93 614.897,419.52 614.877,418.97C614.867,418.42 614.787,417.83 614.657,417.17Z" style="fill-rule:nonzero;"/>
            </g>
            <g transform="matrix(1.12612,0,0,1.12612,155.588,-236.033)">
                <path d="M638.037,420.7C637.877,419.03 637.527,417.52 636.957,416.15C636.387,414.78 635.567,413.66 634.477,412.77C633.397,411.89 631.937,411.45 630.107,411.45C629.037,411.45 627.967,411.68 626.877,412.15C625.797,412.62 624.827,413.37 623.957,414.4C623.087,415.43 622.387,416.78 621.857,418.45C621.327,420.12 621.057,422.15 621.057,424.55C621.057,424.98 621.077,425.6 621.107,426.4C621.137,427.2 621.247,428.09 621.427,429.08C621.617,430.06 621.907,431.06 622.307,432.08C622.707,433.09 623.277,434.01 624.007,434.83C624.737,435.64 625.677,436.32 626.827,436.85C627.977,437.38 629.387,437.65 631.057,437.65C632.587,437.65 633.817,437.49 634.727,437.17C635.647,436.86 636.407,436.53 637.007,436.2L636.857,432.85C636.127,433.52 635.227,434.03 634.177,434.4C633.127,434.77 632.187,434.95 631.357,434.95C631.057,434.95 630.517,434.9 629.727,434.8C628.947,434.7 628.147,434.36 627.327,433.77C626.517,433.19 625.787,432.26 625.127,430.97C624.477,429.69 624.157,427.87 624.157,425.5L638.257,425.5C638.257,423.97 638.177,422.37 638.037,420.7ZM624.157,422.8C624.157,421.97 624.277,421.05 624.507,420.05C624.737,419.05 625.097,418.12 625.577,417.25C626.067,416.38 626.667,415.65 627.377,415.05C628.097,414.45 628.957,414.15 629.957,414.15C630.557,414.15 631.167,414.28 631.787,414.55C632.397,414.82 632.957,415.28 633.457,415.95C633.957,416.62 634.367,417.5 634.677,418.6C634.997,419.7 635.157,421.1 635.157,422.8L624.157,422.8Z" style="fill-rule:nonzero;"/>
            </g>
            <g transform="matrix(1.12612,0,0,1.12612,155.588,-236.033)">
                <path d="M650.257,412.27C649.687,412.59 649.157,413.04 648.657,413.63C648.157,414.21 647.677,414.95 647.207,415.85L647.107,415.85C647.077,415.32 647.037,414.7 647.007,414C646.977,413.3 646.937,412.57 646.907,411.8L644.207,411.8C644.237,413.13 644.287,414.45 644.327,415.75C644.377,417.05 644.407,418.37 644.407,419.7L644.407,437.3L647.307,437.3L647.307,421.25C647.307,418.88 647.847,417.17 648.927,416.13C650.017,415.08 651.707,414.55 654.007,414.55L654.007,411.45C653.307,411.45 652.647,411.51 652.037,411.63C651.417,411.74 650.827,411.96 650.257,412.27Z" style="fill-rule:nonzero;"/>
            </g>
            <g transform="matrix(1.12612,0,0,1.12612,155.588,-236.033)">
                <path d="M675.357,429.4L675.357,411.8L672.457,411.8L672.457,427.65C672.457,428.65 672.327,429.59 672.057,430.47C671.787,431.36 671.407,432.13 670.907,432.8C670.407,433.47 669.797,433.99 669.077,434.38C668.367,434.76 667.557,434.95 666.657,434.95C665.457,434.95 664.537,434.72 663.907,434.27C663.277,433.83 662.807,433.28 662.507,432.65C662.207,432.02 662.037,431.36 661.987,430.67C661.937,429.99 661.907,429.43 661.907,429L661.907,411.8L659.007,411.8L659.007,429.6C659.007,430.6 659.117,431.58 659.327,432.55C659.547,433.52 659.927,434.38 660.457,435.13C660.987,435.88 661.707,436.48 662.607,436.95C663.507,437.42 664.657,437.65 666.057,437.65C667.127,437.65 668.047,437.49 668.827,437.17C669.617,436.86 670.267,436.47 670.787,436.02C671.297,435.58 671.707,435.12 672.007,434.65C672.307,434.18 672.487,433.82 672.557,433.55L672.657,433.55C672.687,434.48 672.717,435.2 672.737,435.7C672.747,436.2 672.787,436.73 672.857,437.3L675.557,437.3C675.527,435.97 675.487,434.65 675.437,433.35C675.387,432.05 675.357,430.73 675.357,429.4Z" style="fill-rule:nonzero;"/>
            </g>
            <g transform="matrix(1.12612,0,0,1.12612,155.588,-236.033)">
                <path d="M698.957,417.17C698.827,416.52 698.617,415.86 698.327,415.17C698.047,414.49 697.647,413.88 697.127,413.33C696.617,412.77 695.947,412.33 695.127,411.97C694.317,411.63 693.327,411.45 692.157,411.45C691.087,411.45 690.177,411.61 689.427,411.92C688.677,412.24 688.047,412.63 687.537,413.08C687.017,413.52 686.607,413.98 686.307,414.45C686.007,414.92 685.787,415.28 685.657,415.55L685.557,415.55C685.527,414.62 685.497,413.9 685.487,413.4C685.467,412.9 685.427,412.37 685.357,411.8L682.657,411.8C682.687,413.13 682.737,414.45 682.787,415.75C682.827,417.05 682.857,418.37 682.857,419.7L682.857,437.3L685.757,437.3L685.757,421.45C685.757,420.45 685.887,419.51 686.157,418.63C686.427,417.74 686.807,416.97 687.307,416.3C687.807,415.63 688.417,415.11 689.127,414.72C689.847,414.34 690.657,414.15 691.557,414.15C692.757,414.15 693.677,414.38 694.307,414.83C694.937,415.27 695.407,415.82 695.707,416.45C696.007,417.08 696.177,417.74 696.237,418.42C696.287,419.11 696.307,419.67 696.307,420.1L696.307,437.3L699.207,437.3L699.207,420.2C699.207,419.93 699.197,419.52 699.177,418.97C699.167,418.42 699.087,417.83 698.957,417.17Z" style="fill-rule:nonzero;"/>
            </g>
            <g transform="matrix(1.12612,0,0,1.12612,155.588,-236.033)">
                <path d="M720.757,415.55L720.657,415.55C719.887,414.22 718.977,413.2 717.927,412.5C716.877,411.8 715.557,411.45 713.957,411.45C712.557,411.45 711.377,411.72 710.427,412.25C709.477,412.78 708.687,413.47 708.057,414.3C707.427,415.13 706.927,416.08 706.557,417.13C706.187,418.17 705.917,419.22 705.727,420.27C705.547,421.33 705.437,422.31 705.407,423.22C705.377,424.14 705.357,424.9 705.357,425.5C705.357,426.7 705.497,428.01 705.777,429.42C706.067,430.84 706.527,432.16 707.177,433.38C707.827,434.59 708.697,435.61 709.777,436.42C710.867,437.24 712.207,437.65 713.807,437.65C715.337,437.65 716.607,437.33 717.607,436.67C718.607,436.02 719.487,435.07 720.257,433.8L720.357,433.8L720.357,437.3C720.357,437.97 720.307,438.77 720.207,439.72C720.107,440.67 719.827,441.59 719.377,442.47C718.927,443.36 718.257,444.12 717.357,444.75C716.457,445.38 715.227,445.7 713.657,445.7C712.827,445.7 711.757,445.55 710.457,445.25C709.157,444.95 707.887,444.45 706.657,443.75L706.457,447C707.257,447.27 707.957,447.48 708.557,447.65C709.157,447.82 709.727,447.96 710.257,448.08C710.787,448.19 711.327,448.27 711.857,448.33C712.387,448.38 713.007,448.4 713.707,448.4C717.107,448.4 719.547,447.35 721.027,445.25C722.517,443.15 723.257,440.3 723.257,436.7L723.257,420.25C723.257,418.25 723.277,416.62 723.307,415.35C723.337,414.08 723.387,412.9 723.457,411.8L720.757,411.8L720.757,415.55ZM720.257,428.63C720.057,429.94 719.717,431.07 719.227,432C718.747,432.93 718.107,433.66 717.307,434.17C716.507,434.69 715.507,434.95 714.307,434.95C713.207,434.95 712.287,434.68 711.557,434.15C710.827,433.62 710.227,432.88 709.757,431.95C709.287,431.02 708.957,429.92 708.757,428.65C708.557,427.38 708.457,426.02 708.457,424.55C708.457,424.22 708.467,423.72 708.477,423.08C708.497,422.42 708.567,421.71 708.677,420.92C708.797,420.14 708.967,419.35 709.177,418.55C709.397,417.75 709.727,417.02 710.157,416.38C710.587,415.72 711.137,415.19 711.807,414.77C712.477,414.36 713.287,414.15 714.257,414.15C715.487,414.15 716.517,414.43 717.327,415C718.147,415.57 718.787,416.32 719.257,417.25C719.727,418.18 720.057,419.26 720.257,420.47C720.457,421.69 720.557,422.95 720.557,424.25C720.557,425.85 720.457,427.31 720.257,428.63Z" style="fill-rule:nonzero;"/>
            </g>
            <g transform="matrix(1.12612,0,0,1.12612,155.588,-236.033)">
                <path d="M746.177,420.7C746.027,419.03 745.677,417.52 745.107,416.15C744.537,414.78 743.717,413.66 742.627,412.77C741.547,411.89 740.087,411.45 738.257,411.45C737.187,411.45 736.117,411.68 735.027,412.15C733.947,412.62 732.977,413.37 732.107,414.4C731.237,415.43 730.537,416.78 730.007,418.45C729.477,420.12 729.207,422.15 729.207,424.55C729.207,424.98 729.227,425.6 729.257,426.4C729.287,427.2 729.397,428.09 729.577,429.08C729.767,430.06 730.057,431.06 730.457,432.08C730.857,433.09 731.427,434.01 732.157,434.83C732.887,435.64 733.827,436.32 734.977,436.85C736.127,437.38 737.537,437.65 739.207,437.65C740.737,437.65 741.967,437.49 742.877,437.17C743.797,436.86 744.557,436.53 745.157,436.2L745.007,432.85C744.277,433.52 743.377,434.03 742.327,434.4C741.277,434.77 740.337,434.95 739.507,434.95C739.207,434.95 738.667,434.9 737.877,434.8C737.097,434.7 736.297,434.36 735.477,433.77C734.667,433.19 733.927,432.26 733.277,430.97C732.627,429.69 732.307,427.87 732.307,425.5L746.407,425.5C746.407,423.97 746.327,422.37 746.177,420.7ZM732.307,422.8C732.307,421.97 732.427,421.05 732.657,420.05C732.887,419.05 733.247,418.12 733.727,417.25C734.217,416.38 734.817,415.65 735.527,415.05C736.247,414.45 737.107,414.15 738.107,414.15C738.707,414.15 739.317,414.28 739.927,414.55C740.547,414.82 741.107,415.28 741.607,415.95C742.107,416.62 742.517,417.5 742.827,418.6C743.147,419.7 743.307,421.1 743.307,422.8L732.307,422.8Z" style="fill-rule:nonzero;"/>
            </g>
            <g transform="matrix(1.12612,0,0,1.12612,155.588,-236.033)">
                <path d="M768.657,417.17C768.527,416.52 768.317,415.86 768.027,415.17C767.747,414.49 767.347,413.88 766.827,413.33C766.317,412.77 765.647,412.33 764.827,411.97C764.017,411.63 763.027,411.45 761.857,411.45C760.787,411.45 759.877,411.61 759.127,411.92C758.377,412.24 757.747,412.63 757.227,413.08C756.717,413.52 756.307,413.98 756.007,414.45C755.707,414.92 755.487,415.28 755.357,415.55L755.257,415.55C755.227,414.62 755.197,413.9 755.177,413.4C755.167,412.9 755.127,412.37 755.057,411.8L752.357,411.8C752.387,413.13 752.427,414.45 752.477,415.75C752.527,417.05 752.557,418.37 752.557,419.7L752.557,437.3L755.457,437.3L755.457,421.45C755.457,420.45 755.587,419.51 755.857,418.63C756.127,417.74 756.507,416.97 757.007,416.3C757.507,415.63 758.117,415.11 758.827,414.72C759.547,414.34 760.357,414.15 761.257,414.15C762.457,414.15 763.377,414.38 764.007,414.83C764.637,415.27 765.107,415.82 765.407,416.45C765.707,417.08 765.877,417.74 765.927,418.42C765.977,419.11 766.007,419.67 766.007,420.1L766.007,437.3L768.907,437.3L768.907,420.2C768.907,419.93 768.897,419.52 768.877,418.97C768.867,418.42 768.787,417.83 768.657,417.17Z" style="fill-rule:nonzero;"/>
            </g>
            <g transform="matrix(1.12612,0,0,1.12612,155.588,-236.033)">
                <path d="M786.957,419.15C786.187,419.15 785.537,419.42 785.007,419.95C784.477,420.48 784.207,421.13 784.207,421.9C784.207,422.67 784.477,423.32 785.007,423.85C785.537,424.38 786.187,424.65 786.957,424.65C787.727,424.65 788.367,424.38 788.907,423.85C789.437,423.32 789.707,422.67 789.707,421.9C789.707,421.13 789.437,420.48 788.907,419.95C788.367,419.42 787.727,419.15 786.957,419.15Z" style="fill-rule:nonzero;"/>
            </g>
            <g transform="matrix(1.12612,0,0,1.12612,155.588,-236.033)">
                <rect x="804.157" y="402.4" width="3.1" height="34.9"/>
            </g>
            <g transform="matrix(1.12612,0,0,1.12612,155.588,-236.033)">
                <path d="M841.307,414.1C840.807,413.3 840.127,412.66 839.277,412.17C838.427,411.69 837.357,411.45 836.057,411.45C835.117,411.45 834.307,411.61 833.607,411.92C832.907,412.24 832.297,412.62 831.777,413.05C831.257,413.48 830.837,413.93 830.507,414.4C830.167,414.87 829.907,415.25 829.707,415.55C829.537,415.18 829.337,414.77 829.107,414.3C828.867,413.83 828.547,413.38 828.127,412.95C827.707,412.52 827.157,412.16 826.457,411.88C825.757,411.59 824.887,411.45 823.857,411.45C823.057,411.45 822.327,411.58 821.677,411.83C821.027,412.08 820.457,412.4 819.977,412.8C819.497,413.2 819.087,413.64 818.757,414.13C818.417,414.61 818.157,415.08 817.957,415.55L817.857,415.55C817.817,414.62 817.797,413.9 817.777,413.4C817.757,412.9 817.717,412.37 817.657,411.8L814.957,411.8C814.987,413.13 815.027,414.45 815.077,415.75C815.127,417.05 815.157,418.37 815.157,419.7L815.157,437.3L818.057,437.3L818.057,421.45C818.057,420.45 818.187,419.51 818.457,418.63C818.717,417.74 819.097,416.97 819.577,416.3C820.057,415.63 820.647,415.11 821.327,414.72C822.007,414.34 822.767,414.15 823.607,414.15C824.807,414.15 825.747,414.63 826.427,415.6C827.107,416.57 827.457,417.88 827.457,419.55L827.457,437.3L830.357,437.3L830.357,420.95C830.357,420.05 830.457,419.19 830.677,418.38C830.897,417.56 831.207,416.84 831.627,416.22C832.047,415.61 832.587,415.11 833.257,414.72C833.917,414.34 834.707,414.15 835.607,414.15C836.637,414.15 837.437,414.38 838.007,414.83C838.567,415.27 838.977,415.82 839.227,416.45C839.477,417.08 839.627,417.74 839.677,418.42C839.727,419.11 839.757,419.67 839.757,420.1L839.757,437.3L842.657,437.3L842.657,419.75C842.657,418.75 842.557,417.76 842.357,416.77C842.157,415.79 841.807,414.9 841.307,414.1Z" style="fill-rule:nonzero;"/>
            </g>
            <g transform="matrix(1.12612,0,0,1.12612,155.588,-236.033)">
                <path d="M876.107,414.1C875.607,413.3 874.927,412.66 874.077,412.17C873.227,411.69 872.157,411.45 870.857,411.45C869.917,411.45 869.107,411.61 868.407,411.92C867.707,412.24 867.097,412.62 866.577,413.05C866.057,413.48 865.637,413.93 865.307,414.4C864.967,414.87 864.707,415.25 864.507,415.55C864.337,415.18 864.137,414.77 863.907,414.3C863.667,413.83 863.347,413.38 862.927,412.95C862.507,412.52 861.957,412.16 861.257,411.88C860.557,411.59 859.687,411.45 858.657,411.45C857.857,411.45 857.127,411.58 856.477,411.83C855.827,412.08 855.257,412.4 854.777,412.8C854.297,413.2 853.887,413.64 853.557,414.13C853.217,414.61 852.957,415.08 852.757,415.55L852.657,415.55C852.617,414.62 852.597,413.9 852.577,413.4C852.557,412.9 852.517,412.37 852.457,411.8L849.757,411.8C849.787,413.13 849.827,414.45 849.877,415.75C849.927,417.05 849.957,418.37 849.957,419.7L849.957,437.3L852.857,437.3L852.857,421.45C852.857,420.45 852.987,419.51 853.257,418.63C853.517,417.74 853.897,416.97 854.377,416.3C854.857,415.63 855.447,415.11 856.127,414.72C856.807,414.34 857.567,414.15 858.407,414.15C859.607,414.15 860.547,414.63 861.227,415.6C861.907,416.57 862.257,417.88 862.257,419.55L862.257,437.3L865.157,437.3L865.157,420.95C865.157,420.05 865.257,419.19 865.477,418.38C865.697,417.56 866.007,416.84 866.427,416.22C866.847,415.61 867.387,415.11 868.057,414.72C868.717,414.34 869.507,414.15 870.407,414.15C871.437,414.15 872.237,414.38 872.807,414.83C873.367,415.27 873.777,415.82 874.027,416.45C874.277,417.08 874.427,417.74 874.477,418.42C874.527,419.11 874.557,419.67 874.557,420.1L874.557,437.3L877.457,437.3L877.457,419.75C877.457,418.75 877.357,417.76 877.157,416.77C876.957,415.79 876.607,414.9 876.107,414.1Z" style="fill-rule:nonzero;"/>
            </g>
            <g transform="matrix(1.12612,0,0,1.12612,155.588,-236.033)">
                <path d="M900.527,415.6C899.807,414.37 898.837,413.37 897.607,412.6C896.367,411.83 894.817,411.45 892.957,411.45C891.087,411.45 889.537,411.83 888.307,412.6C887.067,413.37 886.097,414.37 885.377,415.6C884.657,416.83 884.157,418.23 883.857,419.8C883.557,421.37 883.407,422.95 883.407,424.55C883.407,426.15 883.557,427.73 883.857,429.3C884.157,430.87 884.657,432.27 885.377,433.5C886.097,434.73 887.067,435.73 888.307,436.5C889.537,437.27 891.087,437.65 892.957,437.65C894.817,437.65 896.367,437.27 897.607,436.5C898.837,435.73 899.807,434.73 900.527,433.5C901.247,432.27 901.757,430.87 902.057,429.3C902.357,427.73 902.507,426.15 902.507,424.55C902.507,422.95 902.357,421.37 902.057,419.8C901.757,418.23 901.247,416.83 900.527,415.6ZM899.377,426.02C899.357,426.67 899.297,427.38 899.177,428.15C899.057,428.92 898.867,429.7 898.607,430.5C898.337,431.3 897.957,432.03 897.477,432.7C896.997,433.37 896.387,433.91 895.657,434.33C894.917,434.74 894.017,434.95 892.957,434.95C891.887,434.95 890.987,434.74 890.257,434.33C889.517,433.91 888.907,433.37 888.427,432.7C887.947,432.03 887.567,431.3 887.307,430.5C887.037,429.7 886.847,428.92 886.727,428.15C886.607,427.38 886.547,426.67 886.527,426.02C886.507,425.38 886.507,424.88 886.507,424.55C886.507,424.22 886.507,423.72 886.527,423.08C886.547,422.42 886.607,421.72 886.727,420.95C886.847,420.18 887.037,419.4 887.307,418.6C887.567,417.8 887.947,417.07 888.427,416.4C888.907,415.73 889.517,415.19 890.257,414.77C890.987,414.36 891.887,414.15 892.957,414.15C894.017,414.15 894.917,414.36 895.657,414.77C896.387,415.19 896.997,415.73 897.477,416.4C897.957,417.07 898.337,417.8 898.607,418.6C898.867,419.4 899.057,420.18 899.177,420.95C899.297,421.72 899.357,422.42 899.377,423.08C899.397,423.72 899.407,424.22 899.407,424.55C899.407,424.88 899.397,425.38 899.377,426.02Z" style="fill-rule:nonzero;"/>
            </g>
            <g transform="matrix(1.12612,0,0,1.12612,155.588,-236.033)">
                <path d="M924.327,415.72C923.677,414.51 922.807,413.49 921.727,412.67C920.647,411.86 919.307,411.45 917.707,411.45C916.167,411.45 914.907,411.77 913.907,412.4C912.907,413.03 912.017,413.93 911.257,415.1L911.157,415.1L911.157,399.8L908.257,399.8L908.257,428.85C908.257,430.85 908.237,432.48 908.207,433.75C908.167,435.02 908.117,436.2 908.057,437.3L910.757,437.3L910.757,433.8L910.857,433.8C911.757,435 912.697,435.94 913.677,436.63C914.657,437.31 915.957,437.65 917.557,437.65C918.917,437.65 920.087,437.38 921.057,436.85C922.017,436.32 922.817,435.63 923.457,434.8C924.087,433.97 924.587,433.02 924.957,431.97C925.317,430.92 925.597,429.88 925.777,428.83C925.957,427.77 926.067,426.79 926.107,425.88C926.137,424.96 926.157,424.2 926.157,423.6C926.157,422.4 926.007,421.09 925.727,419.67C925.447,418.26 924.977,416.94 924.327,415.72ZM923.027,426.05C923.007,426.68 922.947,427.39 922.827,428.17C922.707,428.96 922.547,429.75 922.327,430.55C922.107,431.35 921.787,432.08 921.357,432.72C920.917,433.38 920.367,433.91 919.707,434.33C919.037,434.74 918.217,434.95 917.257,434.95C916.017,434.95 914.997,434.67 914.177,434.1C913.357,433.53 912.717,432.78 912.257,431.85C911.787,430.92 911.457,429.84 911.257,428.63C911.057,427.41 910.957,426.15 910.957,424.85C910.957,424.02 910.987,422.98 911.057,421.75C911.117,420.52 911.347,419.34 911.727,418.22C912.107,417.11 912.727,416.15 913.577,415.35C914.427,414.55 915.637,414.15 917.207,414.15C918.307,414.15 919.217,414.42 919.957,414.95C920.687,415.48 921.287,416.22 921.757,417.15C922.217,418.08 922.557,419.18 922.757,420.45C922.957,421.72 923.057,423.08 923.057,424.55C923.057,424.92 923.047,425.42 923.027,426.05Z" style="fill-rule:nonzero;"/>
            </g>
            <g transform="matrix(1.12612,0,0,1.12612,155.588,-236.033)">
                <rect x="932.047" y="401.65" width="3.5" height="4.5"/>
            </g>
            <g transform="matrix(1.12612,0,0,1.12612,155.588,-236.033)">
                <rect x="932.357" y="411.8" width="2.89" height="25.5"/>
            </g>
            <g transform="matrix(1.12612,0,0,1.12612,155.588,-236.033)">
                <rect x="943.057" y="399.8" width="2.9" height="37.5"/>
            </g>
            <g transform="matrix(1.12612,0,0,1.12612,155.588,-236.033)">
                <rect x="953.747" y="411.8" width="2.9" height="25.5"/>
            </g>
            <g transform="matrix(1.12612,0,0,1.12612,155.588,-236.033)">
                <rect x="953.447" y="401.65" width="3.5" height="4.5"/>
            </g>
            <g transform="matrix(1.12612,0,0,1.12612,155.588,-236.033)">
                <path d="M979.827,420.7C979.677,419.03 979.317,417.52 978.747,416.15C978.187,414.78 977.357,413.66 976.277,412.77C975.197,411.89 973.737,411.45 971.897,411.45C970.837,411.45 969.757,411.68 968.677,412.15C967.597,412.62 966.617,413.37 965.747,414.4C964.887,415.43 964.187,416.78 963.647,418.45C963.117,420.12 962.847,422.15 962.847,424.55C962.847,424.98 962.867,425.6 962.897,426.4C962.937,427.2 963.047,428.09 963.227,429.08C963.407,430.06 963.707,431.06 964.097,432.08C964.497,433.09 965.067,434.01 965.797,434.83C966.537,435.64 967.477,436.32 968.627,436.85C969.777,437.38 971.187,437.65 972.847,437.65C974.387,437.65 975.607,437.49 976.527,437.17C977.447,436.86 978.207,436.53 978.797,436.2L978.647,432.85C977.917,433.52 977.027,434.03 975.977,434.4C974.927,434.77 973.987,434.95 973.147,434.95C972.847,434.95 972.307,434.9 971.527,434.8C970.747,434.7 969.947,434.36 969.127,433.77C968.307,433.19 967.577,432.26 966.927,430.97C966.277,429.69 965.957,427.87 965.957,425.5L980.047,425.5C980.047,423.97 979.977,422.37 979.827,420.7ZM965.957,422.8C965.957,421.97 966.067,421.05 966.297,420.05C966.537,419.05 966.897,418.12 967.377,417.25C967.857,416.38 968.457,415.65 969.177,415.05C969.897,414.45 970.747,414.15 971.747,414.15C972.347,414.15 972.957,414.28 973.577,414.55C974.197,414.82 974.747,415.28 975.247,415.95C975.747,416.62 976.157,417.5 976.477,418.6C976.797,419.7 976.957,421.1 976.957,422.8L965.957,422.8Z" style="fill-rule:nonzero;"/>
            </g>
            <g transform="matrix(1.12612,0,0,1.12612,155.588,-236.033)">
                <path d="M1002.33,418.97C1002.31,418.42 1002.24,417.83 1002.1,417.17C1001.97,416.52 1001.76,415.86 1001.48,415.17C1001.2,414.49 1000.8,413.88 1000.28,413.33C999.757,412.77 999.097,412.33 998.277,411.97C997.457,411.63 996.467,411.45 995.297,411.45C994.237,411.45 993.327,411.61 992.577,411.92C991.827,412.24 991.197,412.63 990.677,413.08C990.157,413.52 989.747,413.98 989.447,414.45C989.147,414.92 988.937,415.28 988.797,415.55L988.697,415.55C988.667,414.62 988.647,413.9 988.627,413.4C988.607,412.9 988.567,412.37 988.497,411.8L985.797,411.8C985.837,413.13 985.877,414.45 985.927,415.75C985.977,417.05 985.997,418.37 985.997,419.7L985.997,437.3L988.897,437.3L988.897,421.45C988.897,420.45 989.037,419.51 989.297,418.63C989.567,417.74 989.947,416.97 990.447,416.3C990.947,415.63 991.557,415.11 992.277,414.72C992.997,414.34 993.797,414.15 994.697,414.15C995.897,414.15 996.817,414.38 997.447,414.83C998.087,415.27 998.547,415.82 998.847,416.45C999.147,417.08 999.327,417.74 999.377,418.42C999.427,419.11 999.447,419.67 999.447,420.1L999.447,437.3L1002.35,437.3L1002.35,420.2C1002.35,419.93 1002.35,419.52 1002.33,418.97Z" style="fill-rule:nonzero;"/>
            </g>
        </g>
        <g transform="matrix(0.873806,0,0,0.92117,26,-1.06581e-14)">
            <path d="M226.787,235.17C233.787,230.04 238.787,222.42 242.097,217.73C242.307,217.44 242.507,217.14 242.717,216.84C243.537,215.65 244.347,214.44 245.107,213.29C247.177,210.13 248.767,207.47 248.847,207.17C248.927,206.9 247.077,205.83 247.557,205.49C247.587,205.46 247.637,205.44 247.707,205.43C247.807,205.4 247.937,205.39 248.107,205.39C248.617,205.39 249.497,205.51 250.897,205.81C251.127,205.86 251.377,205.91 251.637,205.97C251.907,206.03 252.187,206.1 252.477,206.17C261.037,208.23 267.977,209.4 274.097,211.32C280.227,213.23 282.057,214.36 282.957,215.32C283.847,216.27 283.617,219.09 282.997,220.88C282.367,222.67 275.867,229.63 273.827,231.42C271.787,233.21 269.997,233.4 268.287,233.52C266.577,233.65 265.887,234.15 264.617,235.27C263.347,236.4 262.707,237.94 262.787,239.73C262.867,241.52 265.327,241.25 265.577,242.46C265.627,242.72 265.567,242.92 265.407,243.09C265.327,243.18 265.227,243.25 265.097,243.32C264.387,243.7 263.007,243.8 261.487,243.8C261.277,243.8 261.047,243.79 260.827,243.79C260.497,243.78 260.207,243.75 259.967,243.69C259.887,243.67 259.807,243.65 259.737,243.62C259.617,243.58 259.507,243.53 259.407,243.48C259.357,243.46 259.317,243.43 259.267,243.4C259.117,243.31 258.987,243.2 258.857,243.09C258.797,243.04 258.737,242.98 258.677,242.92C258.087,242.31 257.647,241.56 256.327,241.25C255.717,241.11 254.667,241.03 253.447,240.99C252.737,240.97 251.967,240.96 251.187,240.96L251.127,240.96C249.667,240.96 248.187,240.99 247.087,241.02C246.817,241.03 246.567,241.04 246.347,241.05C245.667,241.07 245.247,241.09 245.247,241.09C245.247,241.09 244.207,242.05 242.647,244.82C242.407,245.25 242.157,245.72 241.897,246.23C241.767,246.49 241.637,246.76 241.497,247.04C239.327,251.54 240.037,257.84 240.037,257.84L245.747,257.17C251.457,256.5 259.117,253.04 263.247,252.46C267.367,251.88 272.247,250.21 274.247,248.84C276.247,247.46 278.117,241.42 279.747,239.13C280.097,238.63 280.597,237.93 281.187,237.12C281.357,236.89 281.527,236.65 281.707,236.41C281.897,236.16 282.087,235.91 282.277,235.65C282.467,235.4 282.667,235.13 282.877,234.87C283.287,234.34 283.707,233.81 284.147,233.28C284.367,233.02 284.587,232.76 284.807,232.5C285.037,232.24 285.257,231.99 285.477,231.74C285.697,231.49 285.927,231.25 286.147,231.03C287.147,229.99 288.127,229.12 288.997,228.63C292.077,226.88 293.077,225.21 294.207,222.54C295.327,219.88 298.037,211.13 298.367,208.8C298.467,208.08 298.117,207.39 297.497,206.7C297.437,206.63 297.367,206.56 297.307,206.5C295.857,205.01 293.267,203.55 291.417,201.92C291.237,201.76 291.057,201.6 290.867,201.43C290.507,201.07 290.127,200.68 289.727,200.27C287.157,197.55 284.097,193.63 281.867,191.46C281.057,190.68 279.757,189.57 278.257,188.31L278.247,188.31L278.237,188.3C274.637,185.29 269.897,181.5 267.957,179.5C265.207,176.67 265.827,171.8 267.617,166.75C267.887,166 268.147,165.27 268.397,164.53L268.407,164.52C268.587,164.02 268.767,163.52 268.937,163.02C269.357,161.8 269.767,160.59 270.167,159.41C270.337,158.9 270.507,158.39 270.667,157.88C270.877,157.24 271.067,156.61 271.257,155.98C271.397,155.52 271.537,155.06 271.667,154.6C271.877,153.9 272.067,153.22 272.247,152.54C272.967,149.83 272.597,147.23 271.787,144.71C271.657,144.31 271.527,143.92 271.377,143.53C271.317,143.33 271.237,143.13 271.157,142.94C271.007,142.55 270.847,142.16 270.677,141.77C270.597,141.58 270.517,141.38 270.427,141.19C270.257,140.81 270.077,140.42 269.907,140.04C269.457,139.05 268.947,137.98 268.397,136.86C266.747,133.5 264.707,129.61 262.867,125.67C262.567,125.01 262.297,124.38 262.067,123.77C261.827,123.15 261.637,122.56 261.467,121.98C260.467,118.49 260.507,115.51 260.287,112.04C259.997,107.42 256.457,101.42 253.577,97.04C250.707,92.67 246.207,86.04 241.787,80.17C237.367,74.3 234.667,69.71 234.207,68.88C233.967,68.45 234.077,68.21 234.407,68.21C234.717,68.21 235.237,68.43 235.867,68.92C237.167,69.92 239.787,73.54 242.117,75.88C244.457,78.21 245.997,78.17 251.827,78.63C257.667,79.09 260.917,78.92 263.457,79.59C265.997,80.25 267.917,82.5 268.787,85.46C269.667,88.42 270.287,90.04 272.417,91.46C272.777,91.7 273.087,91.93 273.377,92.15C273.557,92.29 273.737,92.43 273.897,92.57C274.147,92.78 274.377,92.97 274.577,93.13C274.707,93.24 274.837,93.34 274.947,93.43C275.017,93.47 275.077,93.52 275.137,93.55C275.257,93.63 275.357,93.69 275.467,93.74C275.627,93.81 275.777,93.85 275.937,93.85C276.037,93.85 276.137,93.83 276.247,93.8C277.207,93.46 277.077,89.38 276.747,88.34C276.417,87.3 275.117,85.63 276.167,84.84C276.377,84.67 276.567,84.6 276.737,84.6C276.967,84.6 277.167,84.75 277.337,84.99C277.397,85.07 277.447,85.17 277.507,85.27C277.637,85.53 277.767,85.85 277.887,86.19C277.937,86.33 277.987,86.47 278.037,86.62C278.067,86.69 278.087,86.76 278.117,86.84C278.667,88.34 278.917,89.63 280.117,90.59C280.327,90.75 280.577,90.83 280.857,90.83C281.267,90.83 281.737,90.66 282.217,90.39C282.407,90.28 282.597,90.15 282.787,90.02C283.637,89.4 284.427,88.51 284.827,87.71C285.707,86 285.367,84.17 287.367,83.3C289.367,82.42 290.247,80.67 291.997,78.02C293.747,75.37 292.747,72.38 291.537,70.8C290.327,69.21 285.707,63.92 282.537,61.04C279.367,58.17 274.617,51.09 270.617,45.09C266.617,39.09 263.787,35.88 262.497,31.71C261.207,27.54 260.867,26.88 258.957,24.17C257.037,21.46 254.537,21.75 253.287,21.67C252.037,21.59 251.577,19.59 250.037,17.46C248.497,15.34 246.497,14.63 244.497,14.09C242.497,13.54 241.327,11.96 240.917,9.38C240.737,8.25 240.307,7.52 239.707,6.89C239.277,6.44 238.757,6.05 238.187,5.59C237.727,5.23 237.227,4.83 236.707,4.34C235.547,3.25 234.607,3.01 233.527,3.01C232.657,3.01 231.707,3.17 230.497,3.17C229.657,3.17 229.067,3.04 228.597,2.84C228.407,2.76 228.237,2.67 228.077,2.58C227.997,2.54 227.927,2.49 227.847,2.44C227.467,2.2 227.117,1.95 226.657,1.74C226.557,1.7 226.467,1.67 226.357,1.63C226.157,1.56 225.927,1.5 225.667,1.46C225.497,1.44 225.337,1.42 225.177,1.42C224.937,1.42 224.697,1.45 224.447,1.5C224.207,1.55 223.977,1.62 223.737,1.7C222.977,1.98 222.247,2.44 221.617,2.89C221.357,3.07 221.117,3.26 220.897,3.43C220.647,3.63 220.407,3.81 220.207,3.96C219.897,4.19 219.617,4.31 219.337,4.31C219.237,4.31 219.137,4.3 219.037,4.27C218.917,4.24 218.787,4.19 218.657,4.13C218.557,4.08 218.457,4.03 218.357,3.96C217.727,3.58 216.897,2.9 215.617,1.96C214.467,1.12 213.547,0.83 212.837,0.83C212.207,0.83 211.757,1.06 211.467,1.34C211.407,1.39 211.357,1.45 211.307,1.5C211.217,1.62 211.157,1.74 211.117,1.84C211.087,1.93 211.037,2 210.967,2.04C210.847,2.12 210.677,2.12 210.477,2.06C210.457,2.06 210.427,2.05 210.407,2.04C210.327,2.01 210.247,1.98 210.167,1.94C210.127,1.92 210.087,1.9 210.057,1.88C209.937,1.83 209.827,1.76 209.697,1.68C209.277,1.42 208.787,1.04 208.287,0.63C207.967,0.37 207.657,0.18 207.367,0.08C207.217,0.03 207.067,0 206.927,0C206.817,0 206.697,0.02 206.597,0.06L206.587,0.06C206.427,0.11 206.267,0.21 206.127,0.36C206.077,0.41 206.027,0.46 205.977,0.52C205.967,0.53 205.957,0.54 205.947,0.56C205.857,0.67 205.767,0.81 205.677,0.97C205.607,1.11 205.537,1.26 205.467,1.42C205.397,1.59 205.327,1.78 205.267,1.98C205.197,2.18 205.137,2.4 205.077,2.63C204.327,5.54 205.287,7.96 205.577,9.92C205.677,10.63 205.527,11.13 205.127,11.5C205.067,11.56 204.997,11.62 204.927,11.67C204.847,11.72 204.767,11.77 204.677,11.81C204.507,11.9 204.317,11.97 204.097,12.04C203.557,12.21 202.877,12.3 202.067,12.36C201.737,12.39 201.397,12.4 201.037,12.42C199.667,12.47 198.977,12.63 198.557,13.09C198.437,13.22 198.337,13.37 198.257,13.56C198.167,13.74 198.097,13.95 198.037,14.2C197.877,14.82 197.737,15.64 197.497,16.75C196.707,20.3 195.367,18.84 193.457,21.5C191.537,24.17 192.207,26.25 191.497,27.88C190.787,29.5 187.957,33.59 186.747,36.92C185.537,40.25 185.667,42.38 186.287,47.5C186.917,52.63 184.617,53.63 184.577,60.96C184.537,68.3 186.367,68.59 186.367,71.96C186.367,72.36 186.337,72.74 186.267,73.11C186.207,73.48 186.127,73.83 186.017,74.19C185.777,75.03 185.427,75.86 185.097,76.79C184.787,77.67 184.487,78.65 184.317,79.81C184.257,80.21 184.207,80.63 184.177,81.07C184.167,81.13 184.167,81.2 184.167,81.27C184.127,81.82 184.127,82.41 184.157,83.04C184.197,83.76 184.267,84.46 184.367,85.16C185.057,90.01 187.037,94.33 187.037,97.21C187.037,99.394 186.221,100.492 185.228,102.322L178.551,69.633C179.559,69.185 180.194,68.047 179.84,66.815C179.629,66.079 179.028,65.481 178.292,65.269C177.264,64.973 176.316,65.37 175.763,66.087L166.931,66.087C166.229,66.087 165.659,65.517 165.659,64.814L165.659,40.17C167.656,39.512 170.144,38.459 170.627,37.95C170.737,37.83 170.647,37.58 170.417,37.26C170.347,37.17 170.267,37.07 170.177,36.97C170.127,36.92 170.077,36.87 170.027,36.81C169.977,36.76 169.917,36.7 169.867,36.65C169.677,36.46 169.457,36.27 169.217,36.07C169.037,35.93 168.847,35.78 168.647,35.63C168.407,35.46 168.157,35.29 167.897,35.12C167.757,35.03 167.617,34.95 167.467,34.87C166.907,34.54 166.307,34.26 165.717,34.06C165.577,34.01 165.437,33.97 165.297,33.93C165.077,33.87 164.867,33.83 164.657,33.8C164.537,33.79 164.417,33.78 164.307,33.78C164.237,33.77 164.167,33.76 164.097,33.76L163.877,33.76C160.977,33.95 157.537,35.3 153.537,37.92C149.537,40.54 149.067,40.7 145.787,45.01C142.507,49.33 138.787,54.2 135.947,57.08C133.097,59.95 132.097,62.33 129.067,65.11C126.037,67.89 123.037,67.17 121.727,67.64C120.417,68.11 118.037,69.7 118.037,69.7C118.037,69.7 119.007,67.3 119.757,65.76C120.507,64.23 120.947,62.14 122.477,61.73C124.007,61.33 126.237,61.56 129.397,60.92C132.557,60.28 133.167,58.89 133.127,57.56C133.097,56.23 132.377,55.65 132.197,54.83C132.007,54 133.287,53.44 132.987,52.84C132.737,52.33 132.207,52.29 132.067,52.29L132.037,52.29C132.747,50.67 132.787,50.13 131.827,49.25C130.867,48.38 132.537,47.46 133.247,46.63C133.957,45.8 133.457,45.17 132.917,44.88C132.367,44.59 131.077,44.13 128.917,42.63C126.747,41.13 127.707,39.8 126.617,37.25C125.537,34.71 122.827,33.13 122.827,33.13C122.617,32.38 123.327,31.17 123.707,29.96C124.077,28.75 121.367,26.71 120.207,26.63C119.037,26.54 116.037,22.34 114.117,22.21C113.957,22.2 113.767,22.23 113.587,22.25C113.467,22.26 113.347,22.26 113.207,22.29C112.937,22.34 112.657,22.42 112.367,22.52C111.987,22.64 111.607,22.8 111.217,22.98C110.587,23.26 109.967,23.6 109.377,23.93C108.957,24.16 108.567,24.39 108.207,24.59C107.967,24.72 107.747,24.85 107.537,24.96C105.827,25.88 104.867,28.04 104.867,28.04C100.917,28.67 97.247,31.38 95.367,33.59C93.497,35.8 95.367,39.04 95.367,39.04C95.367,39.04 93.457,39.46 92.707,42.3C91.957,45.13 93.867,45.8 93.867,45.8C93.867,45.8 89.117,48.42 89.667,55.38C89.867,57.92 91.077,59.36 92.547,60.16C92.727,60.26 92.907,60.35 93.097,60.43L93.107,60.43C93.287,60.52 93.477,60.59 93.667,60.65L93.677,60.65C93.867,60.72 94.057,60.77 94.247,60.83C94.437,60.87 94.637,60.92 94.837,60.95C95.017,60.99 95.207,61.02 95.387,61.04L95.397,61.04C95.577,61.07 95.757,61.09 95.927,61.1C96.277,61.13 96.617,61.14 96.917,61.14C97.727,61.14 98.307,61.06 98.407,61.04C98.407,61.04 98.397,61.09 98.387,61.17C98.367,61.38 98.337,61.8 98.447,62.3C98.457,62.36 98.467,62.41 98.487,62.47C98.497,62.52 98.517,62.58 98.537,62.64C98.627,62.93 98.767,63.24 98.967,63.54C99.057,63.66 99.147,63.78 99.257,63.9C99.367,64.02 99.487,64.14 99.617,64.25C100.457,64.96 101.577,65.13 102.467,65.13C103.227,65.13 103.807,65 103.907,64.98C103.977,65.43 104.017,65.83 104.017,66.22C104.017,68.9 102.377,70.41 99.977,72.48C97.227,74.86 96.477,75.92 93.667,76.36C90.847,76.8 87.097,76.92 83.537,79.04C81.307,80.37 79.747,81.28 78.467,82.69C78.367,82.8 78.277,82.9 78.187,83.01C78.007,83.23 77.827,83.47 77.647,83.72C77.537,83.88 77.437,84.04 77.327,84.2C77.007,84.71 76.697,85.28 76.407,85.92C76.087,86.61 75.767,87.35 75.447,88.14C75.237,88.66 75.017,89.2 74.797,89.75C74.687,90.02 74.577,90.3 74.467,90.58C74.247,91.15 74.027,91.72 73.797,92.3C72.897,94.61 71.977,97.02 71.037,99.23C70.747,99.92 70.327,100.78 69.807,101.75C69.497,102.33 69.157,102.94 68.797,103.58C68.677,103.8 68.557,104.01 68.427,104.23C68.177,104.67 67.917,105.12 67.647,105.57C67.387,106.02 67.107,106.48 66.827,106.94C66.587,107.34 66.337,107.75 66.097,108.15C65.597,108.95 65.107,109.75 64.617,110.53C64.377,110.92 64.137,111.3 63.897,111.67C62.277,114.21 60.857,116.34 60.227,117.23C58.537,119.61 54.597,125.11 54.597,125.11C54.597,125.11 54.857,125.22 55.337,125.43C57.167,126.21 62.127,128.33 66.977,130.3C67.037,130.33 67.097,130.35 67.157,130.38C71.847,132.28 76.407,134.03 77.917,134.3C78.787,134.45 79.497,134.52 80.097,134.52C81.897,134.52 82.677,133.92 83.847,133.36C85.367,132.63 88.937,130.73 89.157,130.62C89.067,130.91 87.177,136.31 85.227,139.11C83.227,141.98 75.977,147.86 73.537,151.36C71.097,154.86 68.597,161.04 68.977,163.98C69.237,166.08 70.817,170.58 71.687,172.97C97.037,182.93 148.017,202.97 149.767,203.8C151.557,204.64 153.137,206.51 152.707,208.44C152.457,209.51 151.507,210.66 149.547,210.66C148.877,210.66 148.137,210.53 147.267,210.27C143.547,209.14 71.917,183.47 55.377,177.54C52.907,178.09 51.037,178.62 50.597,179.04C50.547,179.08 50.497,179.14 50.427,179.21C50.377,178.69 50.337,178.18 50.327,177.73C50.327,177.42 50.337,177.13 50.357,176.89C50.367,176.79 50.377,176.7 50.387,176.61C50.407,176.51 50.427,176.42 50.457,176.34C50.527,176.12 50.637,175.78 50.777,175.35L52.787,174.48C52.787,174.48 53.767,174.83 55.537,175.46C56.507,175.82 57.727,176.25 59.147,176.76C79.877,184.19 144.387,207.31 147.847,208.36C148.547,208.57 149.107,208.66 149.547,208.66C151.657,208.66 150.777,206.49 148.907,205.61C147.217,204.8 95.997,184.66 70.787,174.77C69.497,174.25 68.267,173.77 67.127,173.33C60.937,170.89 57.037,169.36 57.037,169.36C58.967,166.39 57.787,164.43 56.587,164.43C56.417,164.43 56.257,164.47 56.097,164.54C54.787,165.17 54.347,166.23 54.347,166.23L53.287,165.98C53.327,165.53 53.307,165.19 53.207,165C53.197,164.98 53.187,164.96 53.177,164.94C52.987,164.56 52.807,164.18 52.657,163.78C52.317,162.81 52.207,161.66 52.787,159.75C53.617,157 58.617,147.67 60.537,144.59C61.897,142.41 65.117,136.64 66.597,132.3C61.847,130.39 56.967,128.3 54.787,127.36C52.797,134.3 47.497,152.86 46.957,155.09C46.497,157 44.747,159.51 43.687,161.72C43.537,162.04 43.407,162.35 43.297,162.65C43.157,162.98 43.057,163.3 42.987,163.6L39.227,162.73C39.227,161.8 38.687,160.61 37.767,160.61C37.517,160.61 37.227,160.7 36.907,160.92C35.477,161.92 33.347,166.54 33.597,169.36C33.687,170.3 34.047,170.61 34.507,170.61C35.407,170.61 36.667,169.36 36.667,169.36L41.917,171.89C41.887,172.29 41.857,172.65 41.857,172.97C41.857,173.5 41.907,173.89 42.037,174.09C42.057,174.13 42.087,174.16 42.117,174.2C42.857,175.2 44.907,176.64 45.867,177.84C46.167,178.21 46.747,178.87 47.417,179.62C47.847,180.1 48.317,180.61 48.767,181.11C46.317,183.98 42.087,189.19 38.767,193.59C38.767,193.6 38.757,193.61 38.757,193.61C36.477,196.64 34.617,199.29 34.077,200.54C32.457,204.3 28.207,212.13 26.497,216.84C24.787,221.54 26.037,228.25 27.577,232.54C27.807,233.17 28.007,233.74 28.177,234.25C28.217,234.35 28.247,234.46 28.277,234.55C28.387,234.85 28.477,235.13 28.557,235.4C28.667,235.76 28.767,236.1 28.847,236.44C28.897,236.61 28.937,236.77 28.967,236.94C28.987,237.02 29.007,237.1 29.017,237.19C29.037,237.27 29.057,237.35 29.067,237.44C29.117,237.69 29.157,237.95 29.187,238.22C29.207,238.31 29.217,238.4 29.217,238.49C29.237,238.58 29.247,238.68 29.247,238.77C29.287,239.12 29.307,239.5 29.327,239.91C29.367,240.78 29.377,241.79 29.367,243.04C29.337,247.32 30.987,249.85 33.017,251.93C33.327,252.24 33.647,252.55 33.967,252.85C34.127,253 34.297,253.14 34.457,253.29C34.627,253.44 34.787,253.61 34.947,253.78C36.557,255.49 38.057,258.3 39.807,261.11C40.027,261.46 40.247,261.81 40.477,262.16C40.647,262.42 40.817,262.68 40.997,262.94C41.517,263.71 42.067,264.46 42.657,265.17C43.077,265.68 43.497,266.14 43.937,266.57C46.967,269.6 50.447,271.04 54.747,273.63C59.667,276.59 63.327,277.54 63.327,280.92C63.327,284.3 61.207,286 59.537,287.84C58.647,288.82 58.217,290.08 58.217,291.5C58.217,291.81 58.237,292.12 58.277,292.44L58.277,292.45C58.317,292.77 58.377,293.1 58.457,293.42L58.457,293.43C58.497,293.6 58.547,293.76 58.587,293.93C58.727,294.43 58.927,294.94 59.157,295.46C59.317,295.82 59.477,296.17 59.627,296.5C59.777,296.84 59.917,297.16 60.047,297.48C60.177,297.8 60.297,298.1 60.407,298.41C60.987,300 61.317,301.48 61.287,303.38C61.247,306.38 60.457,309.75 57.867,311.88C55.287,314 50.077,316.88 48.867,317.34C48.717,317.4 48.577,317.46 48.437,317.53C48.157,317.67 47.907,317.84 47.677,318.06C47.117,318.59 46.717,319.4 46.537,320.67C46.247,322.71 43.867,330.3 41.117,339.59C38.367,348.88 37.117,350.25 34.707,353.84C34.407,354.29 34.077,354.7 33.737,355.09C33.567,355.29 33.387,355.48 33.207,355.66C31.047,357.84 28.387,359.04 26.387,359.65C26.227,359.7 26.067,359.75 25.907,359.79C25.437,359.92 24.987,360.08 24.547,360.28L24.537,360.28C24.247,360.41 23.957,360.55 23.687,360.69C22.717,361.2 21.877,361.8 21.277,362.41C21.187,362.5 21.107,362.58 21.027,362.67C20.807,362.93 20.617,363.18 20.497,363.42C19.827,364.71 19.037,367.88 19.787,368.13C20.537,368.38 22.207,369.21 21.997,370.75C21.967,370.94 21.897,371.11 21.797,371.25C21.777,371.29 21.747,371.32 21.717,371.35C21.667,371.41 21.617,371.46 21.557,371.51C21.477,371.57 21.377,371.64 21.277,371.69C21.177,371.75 21.067,371.8 20.947,371.84C20.237,372.1 19.347,372.13 18.757,372.13L18.247,372.13C17.667,372.13 16.997,372.54 16.247,374.13C15.497,375.71 14.327,382.13 14.077,387.34C13.827,392.54 15.707,393.25 15.707,393.25C15.707,393.25 22.667,390.59 27.827,386.17C32.997,381.75 37.037,375.67 38.037,372.54C39.037,369.42 39.497,366.42 41.787,364.67C44.077,362.92 46.957,361.25 48.077,360.17C48.587,359.68 48.607,358.67 48.517,357.48C48.487,357.15 48.457,356.8 48.427,356.45C48.407,356.27 48.397,356.09 48.377,355.91C48.357,355.64 48.337,355.36 48.317,355.08C48.267,354.31 48.277,353.56 48.407,352.88C48.447,352.64 48.507,352.38 48.567,352.11C48.617,351.84 48.687,351.54 48.747,351.24C49.307,348.59 50.127,344.97 50.867,342.84C51.787,340.21 56.077,335.67 62.747,332.5C69.417,329.34 75.867,324.96 81.827,321.34C81.957,321.26 82.077,321.19 82.197,321.1C85.687,318.87 87.547,315.93 88.667,313.25C89.367,311.6 89.777,310.03 90.117,308.8C91.037,305.5 92.197,301.14 94.477,299.58C96.757,298.01 100.507,297.48 105.227,293.95C109.947,290.42 113.627,286.42 116.257,283.3C118.877,280.17 120.347,276.73 120.347,273.95C120.347,271.17 118.877,266.23 117.757,263.23C116.627,260.23 115.097,255.48 114.727,253.51C114.657,253.17 114.657,252.93 114.697,252.78C114.717,252.73 114.737,252.69 114.757,252.66C114.787,252.62 114.827,252.59 114.867,252.58C114.917,252.56 114.967,252.55 115.017,252.55C115.557,252.55 116.687,253.4 117.977,254.04C118.087,254.1 118.207,254.16 118.337,254.21C118.647,254.36 118.987,254.51 119.387,254.65C119.547,254.71 119.707,254.77 119.887,254.83C120.057,254.89 120.247,254.95 120.437,255C120.817,255.11 121.227,255.22 121.687,255.32C122.057,255.41 122.447,255.49 122.867,255.55C123.207,255.61 123.557,255.67 123.927,255.72C124.007,255.73 124.087,255.74 124.167,255.75C124.387,255.78 124.607,255.8 124.847,255.83C125.227,255.87 125.637,255.9 126.057,255.94L126.167,255.94C126.777,255.99 127.427,256.02 128.117,256.04C129.357,256.08 130.737,256.08 132.287,256.04C140.977,255.8 151.227,254.92 164.917,252.86C178.597,250.8 183.287,249.36 198.227,245.92C213.167,242.48 219.787,240.3 226.787,235.17ZM167.248,114.732C167.154,114.586 167.037,114.465 166.894,114.366L176.662,69.634C176.941,69.758 177.248,69.828 177.571,69.833L184.501,103.76C184.467,103.835 184.432,103.906 184.397,103.99C184.277,104.26 184.157,104.56 184.027,104.87C183.897,105.18 183.777,105.52 183.657,105.88C183.597,106.07 183.537,106.25 183.487,106.42L183.487,106.43C183.387,106.78 183.297,107.12 183.227,107.44C182.467,110.89 183.667,112.47 183.997,114.59C184.004,114.634 184.011,114.686 184.018,114.732L167.248,114.732ZM153.297,145.85C152.607,146.34 151.957,146.82 151.337,147.26C150.727,147.7 150.137,148.12 149.577,148.52C149.167,148.82 148.767,149.1 148.387,149.36C148.107,149.56 147.827,149.75 147.567,149.93C146.777,150.46 146.087,150.92 145.497,151.29C144.567,151.86 143.637,152.45 142.737,153C140.017,154.66 137.447,156.04 135.037,156.04C131.827,156.04 127.827,153.5 123.577,151.92C119.327,150.34 116.787,149.34 116.207,148.84C115.617,148.34 115.497,147.75 116.207,146.71C116.917,145.67 116.247,141.09 116.577,138.96C116.917,136.84 118.327,134.92 121.287,130.5C124.247,126.09 124.167,119.8 124.167,118.63C124.167,118.04 124.427,117.59 124.857,117.15C125.287,116.71 125.887,116.29 126.577,115.79C126.667,115.72 126.747,115.66 126.837,115.58C126.927,115.51 127.017,115.42 127.107,115.33C128.367,114.04 129.667,111.48 129.667,109.25C129.667,106.71 126.827,102.54 126.207,101.3C125.577,100.04 125.167,98.71 125.997,98.34C126.827,97.96 131.867,93.96 132.497,92.67C133.117,91.38 133.617,88.3 134.167,85.13C134.707,81.96 136.727,76.23 137.347,74.45C137.507,74 137.687,73.58 137.887,73.17C138.297,72.34 138.817,71.58 139.527,70.82C139.707,70.64 139.887,70.45 140.087,70.26C140.287,70.07 140.497,69.89 140.727,69.7C142.537,68.2 143.537,67.14 145.477,64.14C145.777,63.67 146.097,63.1 146.407,62.46C146.527,62.21 146.657,61.94 146.777,61.67C146.847,61.53 146.907,61.39 146.967,61.25C147.097,60.97 147.217,60.68 147.337,60.38C147.647,59.64 147.947,58.87 148.237,58.09C148.357,57.77 148.467,57.46 148.577,57.15C148.687,56.84 148.797,56.54 148.907,56.23C149.037,55.85 149.167,55.48 149.287,55.11C149.407,54.74 149.527,54.39 149.637,54.05C149.687,53.92 149.727,53.78 149.767,53.65C149.857,53.39 149.937,53.14 150.007,52.9C150.197,52.3 150.357,51.77 150.477,51.36C151.257,48.7 152.667,47.08 154.667,46.36C156.667,45.64 157.847,44.67 158.757,43.73C159.381,43.093 161,42.072 162.62,41.299L162.62,64.814C162.62,65.517 162.051,66.087 161.348,66.087L153.046,66.087C152.493,65.369 151.545,64.972 150.516,65.27C149.78,65.482 149.179,66.08 148.969,66.816C148.616,68.048 149.25,69.185 150.258,69.633L141.164,114.158C140.551,114.277 140.079,114.792 140.079,115.441C140.079,116.177 140.676,116.774 141.412,116.774C141.595,116.774 141.77,116.737 141.928,116.67C142.049,121.569 143.088,125.92 152.1,125.92C161.095,125.92 162.147,121.583 162.27,116.695C162.666,116.819 163.071,116.945 163.834,115.836C163.933,115.692 164.005,115.514 163.992,115.34C163.945,114.733 163.482,114.261 162.893,114.154L153.009,68.893C153.114,68.764 153.16,68.706 153.264,68.577L175.545,68.577C175.65,68.706 175.696,68.764 175.8,68.893L165.917,114.154C165.327,114.261 164.864,114.733 164.818,115.34C164.805,115.514 164.876,115.692 164.975,115.836C165.739,116.945 166.143,116.819 166.539,116.695C166.663,121.583 167.714,125.92 176.71,125.92C178.83,125.92 180.504,125.676 181.833,125.244C178.945,127.705 174.148,131.544 167.787,135.75C162.037,139.56 157.157,143.06 153.297,145.85ZM161.561,114.732L142.513,114.732C142.415,114.581 142.293,114.457 142.144,114.356L151.238,69.833C151.562,69.828 151.869,69.758 152.148,69.634L161.916,114.366C161.773,114.465 161.656,114.586 161.561,114.732Z" style="fill-rule:nonzero;"/>
            <path d="M16.347,193.61C19.727,194.55 22.847,192.54 27.227,191.23C30.857,190.14 33.837,191.39 36.877,192.77C37.797,191.54 38.797,190.25 39.797,188.96C37.377,187.02 31.377,182.07 28.477,178.48C24.787,173.92 20.347,170.17 16.597,168.73C12.847,167.3 9.287,167.3 7.667,168.23C6.037,169.17 1.977,172.04 0.597,174.98C-0.773,177.92 0.287,177.61 3.037,179.73C5.787,181.86 8.477,182.3 10.037,185.3C11.597,188.3 12.977,192.67 16.347,193.61Z" style="fill-rule:nonzero;"/>
            <path d="M269.507,167.42C267.637,172.67 267.597,176.27 269.387,178.11C270.807,179.57 274.047,182.24 276.907,184.6C278.037,185.52 279.127,186.42 280.117,187.25C284.237,184.92 294.167,179.33 299.287,176.8C305.847,173.54 307.037,174.42 308.977,176.3C310.907,178.17 312.787,180.92 313.727,183.42C314.667,185.92 317.347,188.11 319.037,189.42C320.727,190.73 320.407,191.73 319.167,193.92C317.907,196.1 316.167,198.23 316.667,200.36C317.167,202.48 318.977,202.17 319.667,203.04C320.347,203.92 319.477,205.36 318.167,205.98C316.847,206.61 314.477,206.23 312.907,206.98C311.347,207.73 305.907,211.54 305.227,212.11C304.537,212.67 304.037,214.17 304.477,221.36C304.907,228.54 307.477,231.48 307.477,231.48C307.477,231.48 309.787,229.92 312.667,227.3C315.537,224.67 321.667,218.23 321.667,216.61C321.667,214.98 322.167,214.11 326.407,210.54C330.667,206.98 331.537,204.36 332.407,201.42C333.287,198.48 332.597,195.11 331.907,193.36C331.227,191.61 329.287,186.98 325.787,180.3C322.287,173.61 317.347,166.42 315.287,163.48C313.227,160.54 313.347,157.8 311.727,156.8C310.097,155.8 303.537,156.54 296.787,158.54C291.277,160.17 278.337,162.31 270.717,163.99C270.337,165.09 269.927,166.23 269.507,167.42Z" style="fill-rule:nonzero;"/>
            <path d="M131.457,350C130.287,348.5 127.787,347.75 126.867,345.42C125.957,343.09 124.707,340.42 124.287,337.17C123.867,333.92 123.367,332.17 121.117,331.09C118.867,330 115.537,329.25 112.957,328C110.367,326.75 108.037,323.25 105.037,321.75C102.587,320.52 96.297,317.41 90.437,314.21C89.247,317 87.297,320.06 83.727,322.49C90.007,328.15 101.907,338.92 104.457,341.38C107.957,344.75 106.867,346.13 107.037,348.59C107.207,351.04 110.037,351.29 112.407,352.04C114.787,352.79 115.327,350.71 115.957,350.88C116.577,351.04 117.747,353.34 118.167,355.13C118.577,356.92 118.037,364.34 117.957,365C117.867,365.67 124.907,368.42 132.577,368.54C140.247,368.67 138.577,366.38 138.577,366.38C136.997,362.5 132.617,351.5 131.457,350Z" style="fill-rule:nonzero;"/>
        </g>
    </g>
</svg>
